<?xml version="1.0" encoding="utf-8"?>
<!-- Generator: Adobe Illustrator 21.0.0, SVG Export Plug-In . SVG Version: 6.00 Build 0)  -->
<svg version="1.1" id="Isolationsmodus" xmlns="http://www.w3.org/2000/svg" xmlns:xlink="http://www.w3.org/1999/xlink" x="0px"
	 y="0px" viewBox="0 0 841.9 595.3" style="enable-background:new 0 0 841.9 595.3;" xml:space="preserve">
<style type="text/css">
	.st0{fill:none;stroke:url(#SVGID_1_);stroke-miterlimit:10;}
	.st1{fill:none;stroke:url(#SVGID_2_);stroke-miterlimit:10;}
	.st2{fill:none;stroke:url(#SVGID_3_);stroke-miterlimit:10;}
	.st3{fill:none;stroke:url(#SVGID_4_);stroke-miterlimit:10;}
	.st4{fill:none;stroke:url(#SVGID_5_);stroke-miterlimit:10;}
	.st5{fill:none;stroke:url(#SVGID_6_);stroke-miterlimit:10;}
	.st6{fill:none;stroke:url(#SVGID_7_);stroke-miterlimit:10;}
	.st7{fill:none;stroke:url(#SVGID_8_);stroke-miterlimit:10;}
	.st8{fill:none;stroke:url(#SVGID_9_);stroke-miterlimit:10;}
	.st9{fill:none;stroke:url(#SVGID_10_);stroke-miterlimit:10;}
	.st10{fill:none;stroke:url(#SVGID_11_);stroke-miterlimit:10;}
	.st11{fill:none;stroke:url(#SVGID_12_);stroke-miterlimit:10;}
	.st12{fill:none;stroke:url(#SVGID_13_);stroke-miterlimit:10;}
	.st13{fill:none;stroke:url(#SVGID_14_);stroke-miterlimit:10;}
	.st14{fill:none;stroke:url(#SVGID_15_);stroke-miterlimit:10;}
	.st15{fill:none;stroke:url(#SVGID_16_);stroke-miterlimit:10;}
	.st16{fill:none;stroke:url(#SVGID_17_);stroke-miterlimit:10;}
	.st17{fill:none;stroke:url(#SVGID_18_);stroke-miterlimit:10;}
	.st18{fill:none;stroke:url(#SVGID_19_);stroke-miterlimit:10;}
	.st19{fill:none;stroke:url(#SVGID_20_);stroke-miterlimit:10;}
	.st20{fill:none;stroke:url(#SVGID_21_);stroke-miterlimit:10;}
	.st21{fill:none;stroke:url(#SVGID_22_);stroke-miterlimit:10;}
	.st22{fill:#2A4B9B;}
	.st23{fill:none;}
	.st24{fill:#FFFFFF;}
	.st25{font-family:'MinionPro-SemiboldIt';}
	.st26{font-size:72px;}
</style>
<g>
	<linearGradient id="SVGID_1_" gradientUnits="userSpaceOnUse" x1="58.3554" y1="330.5896" x2="868.5005" y2="330.5896">
		<stop  offset="0" style="stop-color:#020202"/>
		<stop  offset="1" style="stop-color:#000000"/>
	</linearGradient>
	<path class="st0" d="M82-12.9c-8.3,24.2-60,182.4,24.9,283.2c28.8,34.2,92.5,84.4,136.9,64.8c23.8-10.5,46.5-43.2,36-67.6
		c-9.3-21.5-42.4-32-65-21.5c-21.7,10-27.5,36.2-28.4,40.7c-14.7,67.3,74.8,137.1,81.1,141.9c66.2,50.5,144.8,56.2,194,54.1
		c232.4-9.8,382.8-218.4,404.4-197.7c22.5,21.6-135.4,264.7-192.2,307.6c-5.6,4.3-28.4,20.2-34.7,47.4c-3.3,14.4-0.9,27,1,34.1"/>
	<linearGradient id="SVGID_2_" gradientUnits="userSpaceOnUse" x1="69.4018" y1="329.5271" x2="860.2718" y2="329.5271">
		<stop  offset="0" style="stop-color:#020202"/>
		<stop  offset="1" style="stop-color:#000000"/>
	</linearGradient>
	<path class="st1" d="M96.4-13.3c-8.1,23.2-64.7,179,17.5,281.4c27.3,34,88.4,82.8,131.1,65.2c22.9-9.5,44.8-40,35.1-62.7
		c-8.6-20-39.8-29.4-61.1-19.1c-20.4,9.9-25.6,35.1-26.4,39.7c-11.6,65.4,73,132.4,80,137.7c64.7,48.8,140.9,54.9,189,52.8
		c226.2-10.1,368.9-218.1,394.5-199.4c18.9,13.7-39.1,133.6-101,221c-29.2,41.2-59.4,75.8-79.1,90.3c-6,4.4-28.2,20-34.7,46.1
		c-3.5,13.9-1.5,26.1,0,33"/>
	<linearGradient id="SVGID_3_" gradientUnits="userSpaceOnUse" x1="80.1933" y1="328.4635" x2="852.6514" y2="328.4635">
		<stop  offset="0" style="stop-color:#020202"/>
		<stop  offset="1" style="stop-color:#000000"/>
	</linearGradient>
	<path class="st2" d="M110.8-13.8c-8,22.2-69.3,175.4,10.1,279.6c25.7,33.8,84.4,81.1,125.3,65.5c22-8.4,43-36.8,34.1-57.7
		c-7.9-18.5-37.2-26.8-57.1-16.6c-19.2,9.8-23.7,34-24.4,38.6c-8.6,63.4,71.3,127.8,78.9,133.5c63.1,47.1,137,53.7,184.1,51.4
		C682,470.1,817.1,262.6,846.5,279.2c22.6,12.8-25.5,135.5-86.4,223.5c-28.7,41.4-60.6,76.2-81.6,91.4c-6.3,4.6-27.9,19.8-34.8,44.8
		c-3.7,13.4-2.2,25.2-1.1,31.9"/>
	<linearGradient id="SVGID_4_" gradientUnits="userSpaceOnUse" x1="90.7444" y1="327.3986" x2="845.7873" y2="327.3986">
		<stop  offset="0" style="stop-color:#020202"/>
		<stop  offset="1" style="stop-color:#000000"/>
	</linearGradient>
	<path class="st3" d="M125.3-14.2c-7.9,21.3-74,171.8,2.6,277.8c24.2,33.5,80.3,79.4,119.6,65.9c21.1-7.3,41.3-33.6,33.2-52.8
		c-7.2-17-34.6-24.3-53.1-14.2c-17.9,9.7-21.9,32.9-22.3,37.6c-5.9,61.3,69.5,123.1,77.9,129.3c61.5,45.5,133.1,52.4,179.1,50
		c214-10.8,341.7-217.8,374.7-203c26.4,11.8-12,137.5-71.8,226c-28.2,41.7-61.7,76.6-84.1,92.6c-6.7,4.8-27.7,19.5-34.8,43.5
		c-3.8,12.9-2.9,24.2-2.1,30.7"/>
	<linearGradient id="SVGID_5_" gradientUnits="userSpaceOnUse" x1="101.0703" y1="326.3325" x2="839.8367" y2="326.3325">
		<stop  offset="0" style="stop-color:#020202"/>
		<stop  offset="1" style="stop-color:#000000"/>
	</linearGradient>
	<path class="st4" d="M139.7-14.7c-7.8,20.3-78.7,168-4.8,276c22.7,33.2,76.3,77.8,113.8,66.3c20.2-6.2,39.6-30.3,32.2-47.9
		c-6.5-15.4-31.9-21.7-49.2-11.7c-16.6,9.6-20,31.8-20.3,36.6c-3.3,59.1,67.8,118.5,76.8,125.1c59.9,44,129.1,51.2,174.2,48.7
		c207.8-11.1,328.3-217.8,364.8-204.8C857.4,284.2,828.7,413,770,502c-27.7,41.9-62.8,77-86.6,93.7c-7,5-27.5,19.3-34.9,42.2
		c-4,12.5-3.6,23.3-3.2,29.6"/>
	<linearGradient id="SVGID_6_" gradientUnits="userSpaceOnUse" x1="111.1865" y1="325.265" x2="834.9504" y2="325.265">
		<stop  offset="0" style="stop-color:#020202"/>
		<stop  offset="1" style="stop-color:#000000"/>
	</linearGradient>
	<path class="st5" d="M154.1-15.1c-7.7,19.3-83.3,164.2-12.2,274.2c21.2,32.8,72.2,76.1,108.1,66.7c19.2-5.1,37.8-27.1,31.2-43
		c-5.7-13.9-29.3-19.2-45.2-9.3c-15.3,9.5-18.2,30.7-18.2,35.6c-0.9,56.9,66,113.9,75.7,120.9c58.2,42.5,125.2,49.9,169.2,47.3
		c201.7-11.4,314.8-217.8,354.9-206.6c34.1,9.6,15.2,141.5-42.5,231c-27.1,42.1-63.9,77.4-89.1,94.9c-7.4,5.1-27.2,19-34.9,40.9
		c-4.2,12-4.2,22.4-4.2,28.5"/>
	<linearGradient id="SVGID_7_" gradientUnits="userSpaceOnUse" x1="121.1085" y1="324.2285" x2="831.2418" y2="324.2285">
		<stop  offset="0" style="stop-color:#020202"/>
		<stop  offset="1" style="stop-color:#000000"/>
	</linearGradient>
	<path class="st6" d="M168.5-15.5C161,2.8,80.7,144.8,148.9,256.9c19.7,32.5,68.1,74.5,102.3,67c18.3-4,36.1-23.9,30.3-38.1
		c-5-12.4-26.7-16.6-41.3-6.8c-14,9.4-16.3,29.5-16.2,34.6c1.2,54.5,64.3,109.2,74.6,116.7c56.6,41,121.3,48.7,164.3,45.9
		c195.5-11.7,301.4-218,344.9-208.4c38,8.4,28.7,143.5-27.8,233.4c-26.6,42.3-65,77.8-91.6,96c-7.7,5.3-27,18.8-34.9,39.6
		c-4.4,11.5-4.9,21.5-5.3,27.3"/>
	<linearGradient id="SVGID_8_" gradientUnits="userSpaceOnUse" x1="130.8512" y1="323.1927" x2="828.7509" y2="323.1927">
		<stop  offset="0" style="stop-color:#020202"/>
		<stop  offset="1" style="stop-color:#000000"/>
	</linearGradient>
	<path class="st7" d="M182.9-16c-7.4,17.4-92.4,156.4-27.1,270.6c18.3,32.1,64.1,72.8,96.5,67.4c17.4-2.9,34.3-20.7,29.3-33.2
		c-4.3-10.9-24.1-14.1-37.3-4.4c-12.7,9.3-14.5,28.4-14.2,33.5c3.2,52.2,62.6,104.6,73.6,112.5c54.9,39.5,117.3,47.3,159.3,44.6
		c189.4-12.5,288-218.2,335-210.2c42,7.1,42.3,145.4-13.2,235.9c-26.1,42.5-66.1,78.3-94.1,97.2c-8.1,5.5-26.8,18.6-35,38.3
		c-4.6,11.1-5.6,20.5-6.3,26.2"/>
	<linearGradient id="SVGID_9_" gradientUnits="userSpaceOnUse" x1="140.4287" y1="322.1573" x2="827.4296" y2="322.1573">
		<stop  offset="0" style="stop-color:#020202"/>
		<stop  offset="1" style="stop-color:#000000"/>
	</linearGradient>
	<path class="st8" d="M197.4-16.4c-7.3,16.4-96.8,152.3-34.5,268.9c16.9,31.6,60,71.1,90.8,67.8c16.5-1.9,32.6-17.5,28.4-28.3
		c-3.6-9.4-21.4-11.6-33.3-1.9c-11.4,9.2-12.6,27.2-12.1,32.5c5,49.7,60.8,99.9,72.5,108.3c53.2,38.1,113.4,46.1,154.4,43.2
		C646.6,461.1,738,255.6,788.5,262c45.9,5.8,55.9,147.4,1.4,238.4c-25.6,42.8-67.2,78.7-96.6,98.3c-8.4,5.7-26.6,18.3-35,37
		c-4.8,10.6-6.2,19.6-7.4,25.1"/>
	<linearGradient id="SVGID_10_" gradientUnits="userSpaceOnUse" x1="149.8541" y1="321.122" x2="827.1575" y2="321.122">
		<stop  offset="0" style="stop-color:#020202"/>
		<stop  offset="1" style="stop-color:#000000"/>
	</linearGradient>
	<path class="st9" d="M211.8-16.9c-7.2,15.4-101.2,148.2-41.9,267.1c15.5,31.2,56,69.5,85,68.2c15.6-0.8,30.8-14.3,27.4-23.4
		c-2.9-7.8-18.8-9-29.4,0.5c-10,9-10.8,26.1-10.1,31.5c6.6,47.3,59.1,95.3,71.4,104.1c51.5,36.6,109.5,44.8,149.4,41.8
		c177.1-13.2,261.2-218.7,315.2-213.8c49.8,4.5,69.5,149.4,16.1,240.9c-25.1,43-68.3,79.1-99.1,99.5c-8.8,5.8-26.4,18.1-35.1,35.7
		c-5,10.1-6.9,18.7-8.4,24"/>
	<linearGradient id="SVGID_11_" gradientUnits="userSpaceOnUse" x1="159.1387" y1="320.0865" x2="827.7792" y2="320.0865">
		<stop  offset="0" style="stop-color:#020202"/>
		<stop  offset="1" style="stop-color:#000000"/>
	</linearGradient>
	<path class="st10" d="M226.2-17.3c-7.1,14.5-105.5,144-49.4,265.3c14.2,30.7,51.9,67.9,79.2,68.5c14.6,0.4,29.1-11.1,26.5-18.5
		c-2.2-6.3-16.1-6.5-25.4,3c-8.7,8.9-9,24.9-8,30.5c8.1,44.9,57.3,90.7,70.3,99.9c49.7,35.2,105.5,43.5,144.5,40.5
		c171-13.6,247.8-218.9,305.3-215.6c53.6,3.2,83,151.4,30.7,243.4c-24.6,43.2-69.5,79.5-101.6,100.6c-9.1,6-26.2,17.9-35.1,34.4
		c-5.2,9.7-7.6,17.8-9.5,22.8"/>
	<linearGradient id="SVGID_12_" gradientUnits="userSpaceOnUse" x1="168.2925" y1="319.0504" x2="829.1376" y2="319.0504">
		<stop  offset="0" style="stop-color:#020202"/>
		<stop  offset="1" style="stop-color:#000000"/>
	</linearGradient>
	<path class="st11" d="M240.6-17.8C233.7-4.3,131,122,183.8,245.7c12.9,30.2,47.8,66.2,73.5,68.9c13.7,1.4,27.3-7.9,25.5-13.6
		c-1.5-4.8-13.5-4-21.5,5.4c-7.4,8.7-7.2,23.8-6,29.4c9.4,42.5,55.6,86.1,69.3,95.7c48,33.8,101.6,42.3,139.5,39.1
		c164.8-13.9,234.3-219.2,295.4-217.4c57.5,1.8,96.6,153.3,45.4,245.9c-24.1,43.4-70.6,79.9-104.1,101.8
		c-9.5,6.2-26.1,17.6-35.1,33.1c-5.4,9.2-8.2,16.8-10.5,21.7"/>
	<linearGradient id="SVGID_13_" gradientUnits="userSpaceOnUse" x1="177.3232" y1="318.0133" x2="831.0865" y2="318.0133">
		<stop  offset="0" style="stop-color:#020202"/>
		<stop  offset="1" style="stop-color:#000000"/>
	</linearGradient>
	<path class="st12" d="M255.1-18.2c-6.8,12.5-113.6,135.4-64.2,261.7c11.6,29.7,43.8,64.6,67.7,69.3c12.8,2.5,25.6-4.7,24.5-8.7
		c-0.8-3.3-10.8-1.6-17.5,7.9c-6.1,8.6-5.5,22.7-4,28.4c10.5,40.1,53.8,81.4,68.2,91.5c46.3,32.4,97.7,41,134.6,37.7
		c158.7-14.2,220.9-217,285.4-219.1c61.4-2.1,110.2,155.3,60,248.4c-23.6,43.6-71.7,80.3-106.6,102.9c-9.8,6.4-25.9,17.4-35.2,31.8
		c-5.6,8.7-8.9,15.9-11.6,20.6"/>
	<linearGradient id="SVGID_14_" gradientUnits="userSpaceOnUse" x1="186.2362" y1="316.9746" x2="833.517" y2="316.9746">
		<stop  offset="0" style="stop-color:#020202"/>
		<stop  offset="1" style="stop-color:#000000"/>
	</linearGradient>
	<path class="st13" d="M269.5-18.6C262.8-7.1,152,112.4,197.8,241.3c10.4,29.2,39.7,62.9,61.9,69.7c11.9,3.6,23.8-1.5,23.6-3.7
		c-0.2-1.8-8.1,0.9-13.5,10.3c-4.8,8.3-3.7,21.5-1.9,27.4c11.6,37.7,52,76.8,67.1,87.3c44.5,31,93.7,39.8,129.6,36.4
		C617.1,454,672.1,251,740.1,247.6c65.2-3.3,123.8,157.3,74.6,250.9c-23,43.8-72.8,80.8-109.1,104.1c-10.2,6.5-25.8,17.1-35.2,30.5
		c-5.8,8.2-9.6,15-12.6,19.4"/>
	<linearGradient id="SVGID_15_" gradientUnits="userSpaceOnUse" x1="195.0341" y1="315.934" x2="836.3506" y2="315.934">
		<stop  offset="0" style="stop-color:#020202"/>
		<stop  offset="1" style="stop-color:#000000"/>
	</linearGradient>
	<path class="st14" d="M283.9-19.1C277.3-8.5,162.7,107.6,204.8,239c9.2,28.7,35.6,61.2,56.2,70c10.9,4.7,22.1,1.7,22.6,1.2
		c0.6-0.2-5.5,3.3-9.6,12.8c-3.5,8.1-2,20.4,0.1,26.4c12.5,35.4,50.3,72.2,66,83.1c42.8,29.6,89.8,38.5,124.7,35
		c146.4-14.9,193.9-220.2,265.6-222.7c69.1-2.4,137.3,159.3,89.3,253.4c-22.5,44.1-73.9,81.2-111.6,105.2
		c-10.5,6.7-25.6,16.9-35.3,29.2c-6.1,7.8-10.3,14-13.7,18.3"/>
	<linearGradient id="SVGID_16_" gradientUnits="userSpaceOnUse" x1="203.7162" y1="314.8912" x2="839.4871" y2="314.8912">
		<stop  offset="0" style="stop-color:#020202"/>
		<stop  offset="1" style="stop-color:#000000"/>
	</linearGradient>
	<path class="st15" d="M298.3-19.5c-6.5,9.6-124.7,122.2-86.5,256.3c8,28.1,31.6,59.6,50.4,70.4c10,5.8,20.4,4.9,21.7,6.1
		c1.3,1.2-2.9,5.7-5.6,15.2c-2.2,7.8-0.3,19.3,2.2,25.3c13.4,33.2,48.5,67.6,65,78.9c41,28.2,85.9,37.3,119.7,33.6
		c140.3-15.2,180.4-220.6,255.7-224.5c73-3.8,150.9,161.3,103.9,255.9c-22,44.3-75,81.6-114.1,106.4c-10.8,6.9-25.5,16.6-35.3,27.9
		c-6.3,7.3-10.9,13.1-14.7,17.2"/>
	<linearGradient id="SVGID_17_" gradientUnits="userSpaceOnUse" x1="212.2776" y1="313.8459" x2="842.8797" y2="313.8459">
		<stop  offset="0" style="stop-color:#020202"/>
		<stop  offset="1" style="stop-color:#000000"/>
	</linearGradient>
	<path class="st16" d="M312.7-20c-6.4,8.6-128.1,117.7-93.9,254.5c6.9,27.6,27.5,57.9,44.6,70.8c9.1,6.9,18.6,8.1,20.7,11
		c2,2.8-0.4,8-1.6,17.7c-1,7.6,1.4,18.2,4.2,24.3c14.1,31,46.7,63,63.9,74.7c39.3,26.8,81.9,36,114.8,32.3
		c134.1-15.5,167-220.9,245.8-226.3c76.8-5.3,164.5,163.2,118.6,258.4c-21.5,44.5-76.1,82-116.6,107.5
		c-11.2,7.1-25.4,16.3-35.4,26.6c-6.5,6.8-11.6,12.2-15.8,16"/>
	<linearGradient id="SVGID_18_" gradientUnits="userSpaceOnUse" x1="220.7091" y1="312.7979" x2="846.483" y2="312.7979">
		<stop  offset="0" style="stop-color:#020202"/>
		<stop  offset="1" style="stop-color:#000000"/>
	</linearGradient>
	<path class="st17" d="M327.2-20.4C320.9-12.7,196,92.8,225.8,232.4c5.8,27.1,23.5,56.2,38.9,71.2c8.2,7.9,16.9,11.3,19.8,15.9
		c2.7,4.3,2.1,10.4,2.3,20.1c0.2,7.3,3.1,17.1,6.2,23.3c14.9,29,45,58.4,62.8,70.5c37.5,25.5,78,34.8,109.8,30.9
		c128-15.7,153.5-221.3,235.9-228.1c80.7-6.7,178,165.2,133.2,260.9c-21,44.7-77.2,82.4-119.1,108.7c-11.5,7.2-25.3,16-35.4,25.3
		c-6.8,6.3-12.3,11.3-16.8,14.9"/>
	<linearGradient id="SVGID_19_" gradientUnits="userSpaceOnUse" x1="228.9958" y1="311.7472" x2="850.2613" y2="311.7472">
		<stop  offset="0" style="stop-color:#020202"/>
		<stop  offset="1" style="stop-color:#000000"/>
	</linearGradient>
	<path class="st18" d="M341.6-20.8c-6.1,6.7-134,108.7-108.8,251c4.7,26.6,19.4,54.5,33.1,71.5c7.3,9,15.1,14.5,18.8,20.8
		c3.4,5.8,4.5,12.8,6.3,22.6c1.3,7.1,4.7,16,8.3,22.3c15.6,27,43.2,53.8,61.7,66.3c35.8,24.1,74.1,33.6,104.9,29.5
		c121.9-16,140-221.6,225.9-229.9c84.5-8.1,191.6,167.2,147.8,263.3c-20.5,44.9-78.4,82.8-121.6,109.8c-11.9,7.4-25.2,15.7-35.4,24
		c-7.1,5.8-12.9,10.3-17.9,13.8"/>
	<linearGradient id="SVGID_20_" gradientUnits="userSpaceOnUse" x1="237.1167" y1="310.6937" x2="854.186" y2="310.6937">
		<stop  offset="0" style="stop-color:#020202"/>
		<stop  offset="1" style="stop-color:#000000"/>
	</linearGradient>
	<path class="st19" d="M356-21.3C350-15.6,219.4,83,239.8,227.9c3.7,26.1,15.4,52.9,27.3,71.9c6.4,10.1,13.4,17.7,17.8,25.7
		c4.1,7.4,6.9,15.3,10.2,25c2.4,6.9,6.3,15,10.3,21.2c16.3,25.1,41.4,49.2,60.7,62.1c34,22.8,70.1,32.4,99.9,28.2
		c115.8-16,126.5-222,216-231.7c88.3-9.6,205.2,169.2,162.5,265.8c-20,45.1-79.5,83.3-124.1,111c-12.2,7.6-25.1,15.4-35.5,22.7
		c-7.3,5.2-13.6,9.4-18.9,12.7"/>
	<linearGradient id="SVGID_21_" gradientUnits="userSpaceOnUse" x1="245.0432" y1="309.6376" x2="858.2335" y2="309.6376">
		<stop  offset="0" style="stop-color:#020202"/>
		<stop  offset="1" style="stop-color:#000000"/>
	</linearGradient>
	<path class="st20" d="M370.4-21.7c-5.9,4.7-139,99.9-123.7,247.4c2.7,25.6,11.3,51.2,21.6,72.3c5.4,11.2,11.6,20.9,16.9,30.6
		c4.8,8.9,9.2,17.8,14.2,27.5c3.5,6.7,7.8,14,12.4,20.2c17,23.4,39.6,44.7,59.6,57.9c32.2,21.4,66.2,31.1,95,26.8
		C576,444.7,579.3,238.5,672.4,227.5c92.1-11.2,218.8,171.2,177.1,268.3C830.1,541.2,769,579.5,722.9,608
		c-12.6,7.8-25.1,15-35.5,21.5c-7.6,4.7-14.3,8.5-20,11.5"/>
	<linearGradient id="SVGID_22_" gradientUnits="userSpaceOnUse" x1="252.7387" y1="308.5793" x2="862.3877" y2="308.5793">
		<stop  offset="0" style="stop-color:#020202"/>
		<stop  offset="1" style="stop-color:#000000"/>
	</linearGradient>
	<path class="st21" d="M384.8-22.2c-5.8,3.8-141.1,95.6-131.1,245.6c8.9,133.9,129.4,249.9,212.8,236.5
		c103.5-16.7,99.4-222.7,196.2-235.3c96-12.4,232.3,173.1,191.8,270.8c-18.9,45.6-81.7,84.1-129.1,113.3
		c-22.5,13.9-42.3,23.9-56.6,30.6"/>
</g>
<circle class="st22" cx="418.1" cy="206" r="43.1"/>
<rect x="408" y="166.8" class="st23" width="168.9" height="151.5"/>
<text transform="matrix(1 0 0 1 407.9513 217.6472)" class="st24 st25 st26">j</text>
<circle class="st22" cx="542.9" cy="89.1" r="25.4"/>
<rect x="493.5" y="61.8" class="st23" width="168.9" height="151.5"/>
<text transform="matrix(1 0 0 1 493.5241 112.6569)" class="st22 st25 st26">j</text>
</svg>
