<?xml version="1.0" encoding="utf-8"?>
<!-- Generator: Adobe Illustrator 21.0.0, SVG Export Plug-In . SVG Version: 6.00 Build 0)  -->
<svg version="1.1" id="Isolationsmodus" xmlns="http://www.w3.org/2000/svg" xmlns:xlink="http://www.w3.org/1999/xlink" x="0px"
	 y="0px" viewBox="0 0 841.9 595.3" style="enable-background:new 0 0 841.9 595.3;" xml:space="preserve">
<style type="text/css">
	.st0{fill:none;stroke:#FFED00;stroke-width:0.7374;stroke-miterlimit:10;}
</style>
<g>
	<path class="st0" d="M153.7-12.6C148.3,3,115,105,169.7,170c18.6,22.1,59.6,54.4,88.2,41.8c15.4-6.8,30-27.8,23.2-43.5
		c-6-13.9-27.3-20.6-41.9-13.9c-14,6.4-17.7,23.3-18.3,26.2c-9.5,43.4,48.2,88.3,52.3,91.4c42.7,32.5,93.4,36.2,125,34.9
		c149.8-6.3,246.7-140.8,260.7-127.4c14.5,13.9-87.3,170.6-123.9,198.3c-3.6,2.7-18.3,13-22.4,30.5c-2.1,9.3-0.6,17.4,0.7,22"/>
	<path class="st0" d="M163-12.8c-5.3,15-41.7,115.3,11.3,181.4c17.6,21.9,57,53.3,84.5,42c14.8-6.1,28.9-25.8,22.6-40.4
		c-5.5-12.9-25.6-18.9-39.4-12.3c-13.2,6.4-16.5,22.6-17,25.6c-7.5,42.2,47.1,85.3,51.6,88.7c41.7,31.4,90.8,35.4,121.8,34
		c145.8-6.5,237.8-140.6,254.3-128.5c12.1,8.9-25.2,86.1-65.1,142.4c-18.8,26.6-38.3,48.8-51,58.2c-3.9,2.9-18.2,12.9-22.4,29.7
		c-2.2,9-1,16.8,0,21.3"/>
	<path class="st0" d="M172.3-13.1c-5.2,14.3-44.7,113.1,6.5,180.2c16.6,21.8,54.4,52.3,80.8,42.2c14.2-5.4,27.7-23.7,22-37.2
		c-5.1-11.9-23.9-17.3-36.8-10.7c-12.3,6.3-15.3,21.9-15.7,24.9c-5.6,40.9,45.9,82.4,50.9,86c40.7,30.4,88.3,34.6,118.6,33.1
		c141.9-6.7,229-140.4,247.9-129.7c14.5,8.2-16.5,87.4-55.7,144c-18.5,26.7-39,49.1-52.6,58.9c-4.1,3-18,12.7-22.4,28.9
		c-2.4,8.6-1.4,16.2-0.7,20.5"/>
	<path class="st0" d="M181.6-13.4c-5.1,13.7-47.7,110.7,1.7,179.1c15.6,21.6,51.8,51.2,77.1,42.5c13.6-4.7,26.6-21.6,21.4-34.1
		c-4.6-10.9-22.3-15.6-34.2-9.1c-11.5,6.2-14.1,21.2-14.4,24.2c-3.8,39.5,44.8,79.4,50.2,83.3c39.7,29.3,85.8,33.8,115.4,32.2
		c137.9-6.9,220.3-140.4,241.5-130.9c17,7.6-7.7,88.6-46.2,145.7c-18.2,26.9-39.7,49.4-54.2,59.7c-4.3,3.1-17.9,12.6-22.4,28
		c-2.5,8.3-1.9,15.6-1.4,19.8"/>
	<path class="st0" d="M190.9-13.7c-5,13.1-50.7,108.3-3.1,177.9c14.6,21.4,49.2,50.1,73.4,42.7c13-4,25.5-19.6,20.8-30.9
		c-4.2-10-20.6-14-31.7-7.6c-10.7,6.2-12.9,20.5-13.1,23.6c-2.1,38.1,43.7,76.4,49.5,80.6c38.6,28.3,83.2,33,112.2,31.4
		c133.9-7.1,211.6-140.4,235.1-132c19.5,6.9,1,89.9-36.8,147.3c-17.8,27-40.5,49.6-55.8,60.4c-4.5,3.2-17.7,12.4-22.5,27.2
		c-2.6,8-2.3,15-2,19.1"/>
	<path class="st0" d="M200.2-14c-4.9,12.4-53.7,105.9-7.9,176.7c13.7,21.2,46.5,49.1,69.6,43c12.4-3.3,24.4-17.5,20.1-27.7
		c-3.7-9-18.9-12.4-29.1-6c-9.8,6.1-11.7,19.8-11.8,22.9c-0.6,36.6,42.6,73.4,48.8,77.9c37.5,27.4,80.7,32.2,109.1,30.5
		C529,296,601.9,163,627.7,170.2c22,6.2,9.8,91.2-27.4,148.9c-17.5,27.1-41.2,49.9-57.4,61.1c-4.8,3.3-17.6,12.3-22.5,26.4
		c-2.7,7.7-2.7,14.4-2.7,18.3"/>
	<path class="st0" d="M209.4-14.3c-4.9,11.8-56.6,103.4-12.7,175.6c12.7,20.9,43.9,48,65.9,43.2c11.8-2.6,23.2-15.4,19.5-24.6
		c-3.2-8-17.2-10.7-26.6-4.4c-9,6.1-10.5,19-10.4,22.3c0.8,35.1,41.4,70.4,48.1,75.2c36.5,26.4,78.2,31.4,105.9,29.6
		c126-7.6,194.3-140.5,222.3-134.3c24.5,5.4,18.5,92.5-17.9,150.5c-17.2,27.3-41.9,50.2-59,61.9c-5,3.4-17.4,12.1-22.5,25.5
		c-2.8,7.4-3.1,13.8-3.4,17.6"/>
	<path class="st0" d="M218.7-14.5C214-3.4,159.2,86.2,201.3,159.9c11.8,20.7,41.3,46.9,62.2,43.5c11.2-1.9,22.1-13.4,18.9-21.4
		c-2.8-7-15.5-9.1-24-2.8c-8.2,6-9.3,18.3-9.1,21.6c2.1,33.6,40.3,67.4,47.4,72.5c35.4,25.5,75.6,30.5,102.7,28.7
		c122.1-8.1,185.6-140.6,215.9-135.5c27,4.6,27.3,93.7-8.5,152.1c-16.8,27.4-42.6,50.4-60.6,62.6c-5.2,3.5-17.3,12-22.6,24.7
		c-2.9,7.1-3.6,13.2-4.1,16.9"/>
	<path class="st0" d="M228-14.8c-4.7,10.6-62.4,98.2-22.2,173.3c10.9,20.4,38.7,45.9,58.5,43.7c10.6-1.2,21-11.3,18.3-18.2
		c-2.3-6-13.8-7.4-21.5-1.2c-7.3,5.9-8.2,17.6-7.8,20.9c3.2,32.1,39.2,64.4,46.7,69.8c34.3,24.5,73.1,29.7,99.5,27.8
		c118.1-8.3,177-140.8,209.5-136.6c29.6,3.8,36,95,0.9,153.7c-16.5,27.6-43.3,50.7-62.3,63.4c-5.4,3.7-17.2,11.8-22.6,23.9
		c-3.1,6.8-4,12.6-4.7,16.2"/>
	<path class="st0" d="M237.3-15.1c-4.6,9.9-65.2,95.5-27,172.1c10,20.1,36.1,44.8,54.8,43.9c10-0.5,19.9-9.2,17.7-15.1
		c-1.9-5-12.1-5.8-18.9,0.3c-6.5,5.8-7,16.8-6.5,20.3c4.3,30.5,38.1,61.4,46,67.1c33.2,23.6,70.5,28.9,96.3,27
		C513.8,292,568,159.6,602.8,162.8c32.1,2.9,44.8,96.3,10.4,155.3c-16.2,27.7-44,51-63.9,64.1c-5.7,3.8-17,11.7-22.6,23
		c-3.2,6.5-4.4,12-5.4,15.4"/>
	<path class="st0" d="M246.6-15.4c-4.6,9.3-68,92.8-31.8,171c9.2,19.8,33.5,43.8,51.1,44.2c9.4,0.2,18.7-7.2,17.1-11.9
		c-1.4-4.1-10.4-4.2-16.4,1.9c-5.6,5.7-5.8,16.1-5.2,19.6c5.2,28.9,36.9,58.4,45.3,64.4c32.1,22.7,68,28.1,93.1,26.1
		c110.2-8.7,159.7-141.1,196.8-138.9c34.6,2,53.5,97.6,19.8,156.9c-15.8,27.8-44.8,51.3-65.5,64.8c-5.9,3.9-16.9,11.5-22.6,22.2
		c-3.3,6.2-4.9,11.4-6.1,14.7"/>
	<path class="st0" d="M255.9-15.7c-4.5,8.7-70.6,90.1-36.6,169.8c8.3,19.5,30.8,42.7,47.3,44.4c8.8,0.9,17.6-5.1,16.4-8.7
		c-1-3.1-8.7-2.6-13.8,3.5c-4.8,5.6-4.7,15.3-3.9,19c6,27.4,35.8,55.5,44.6,61.7c30.9,21.8,65.5,27.3,89.9,25.2
		c106.2-9,151-141.3,190.4-140.1c37.1,1.2,62.3,98.8,29.2,158.5c-15.5,28-45.5,51.5-67.1,65.6c-6.1,4-16.8,11.4-22.7,21.4
		c-3.5,5.9-5.3,10.8-6.8,14"/>
	<path class="st0" d="M265.2-16c-4.4,8.1-73.2,87.3-41.4,168.7c7.5,19.2,28.2,41.6,43.6,44.7c8.2,1.6,16.5-3,15.8-5.6
		c-0.5-2.1-7-1-11.3,5.1c-3.9,5.5-3.5,14.6-2.6,18.3c6.8,25.8,34.7,52.5,43.9,59c29.8,20.9,62.9,26.4,86.7,24.3
		c102.3-9.2,142.4-139.8,184-141.2c39.6-1.3,71,100.1,38.7,160.1c-15.2,28.1-46.2,51.8-68.7,66.3c-6.3,4.1-16.7,11.2-22.7,20.5
		c-3.6,5.6-5.7,10.2-7.4,13.2"/>
	<path class="st0" d="M274.5-16.3c-4.3,7.4-75.7,84.5-46.2,167.5c6.7,18.8,25.6,40.5,39.9,44.9c7.7,2.3,15.3-1,15.2-2.4
		c-0.1-1.1-5.2,0.6-8.7,6.7c-3.1,5.4-2.4,13.9-1.2,17.6c7.5,24.3,33.5,49.5,43.3,56.3c28.7,20,60.4,25.6,83.5,23.4
		c98.3-9.4,133.7-140.2,177.6-142.4c42-2.1,79.8,101.4,48.1,161.7c-14.8,28.3-46.9,52.1-70.3,67.1c-6.6,4.2-16.6,11-22.7,19.7
		c-3.7,5.3-6.2,9.6-8.1,12.5"/>
	<path class="st0" d="M283.8-16.5c-4.2,6.8-78.1,81.6-51,166.4c5.9,18.5,23,39.5,36.2,45.1c7.1,3,14.2,1.1,14.6,0.7
		c0.4-0.1-3.5,2.1-6.1,8.2c-2.2,5.2-1.3,13.1,0.1,17c8.1,22.8,32.4,46.5,42.6,53.6c27.6,19.1,57.9,24.8,80.3,22.5
		c94.4-9.6,125-141.9,171.2-143.6c44.6-1.6,88.5,102.7,57.5,163.3c-14.5,28.4-47.6,52.3-71.9,67.8c-6.8,4.3-16.5,10.9-22.8,18.9
		c-3.9,5-6.6,9-8.8,11.8"/>
	<path class="st0" d="M293.1-16.8c-4.2,6.2-80.4,78.7-55.8,165.2c5.2,18.1,20.4,38.4,32.5,45.4c6.5,3.7,13.1,3.1,14,3.9
		c0.9,0.8-1.9,3.7-3.6,9.8c-1.4,5.1-0.2,12.4,1.4,16.3c8.6,21.4,31.3,43.6,41.9,50.9c26.4,18.2,55.3,24,77.1,21.7
		c90.4-9.8,116.3-142.2,164.8-144.7c47-2.5,97.3,103.9,67,164.9c-14.2,28.5-48.4,52.6-73.5,68.6c-7,4.5-16.5,10.7-22.8,18
		c-4,4.7-7,8.4-9.5,11.1"/>
	<path class="st0" d="M302.4-17.1c-4.1,5.6-82.5,75.9-60.5,164.1c4.4,17.8,17.7,37.3,28.8,45.6c5.9,4.4,12,5.2,13.4,7.1
		c1.3,1.8-0.2,5.2-1,11.4c-0.6,4.9,0.9,11.7,2.7,15.7c9.1,20,30.1,40.6,41.2,48.2c25.3,17.3,52.8,23.2,74,20.8
		c86.4-10,107.6-142.4,158.4-145.9c49.5-3.4,106,105.2,76.4,166.5c-13.9,28.7-49.1,52.9-75.2,69.3c-7.2,4.6-16.4,10.5-22.8,17.2
		c-4.2,4.4-7.5,7.8-10.1,10.3"/>
	<path class="st0" d="M311.7-17.4c-4,4.9-84.5,73-65.3,162.9c3.7,17.5,15.1,36.3,25.1,45.9c5.3,5.1,10.9,7.3,12.7,10.2
		c1.8,2.8,1.4,6.7,1.5,13c0.1,4.7,2,11,4,15c9.6,18.7,29,37.6,40.5,45.4c24.2,16.4,50.3,22.4,70.8,19.9
		c82.5-10.1,98.9-142.6,152-147c52-4.3,114.8,106.5,85.9,168.1c-13.5,28.8-49.8,53.1-76.8,70c-7.5,4.7-16.3,10.3-22.8,16.3
		c-4.4,4-7.9,7.2-10.8,9.6"/>
	<path class="st0" d="M321-17.7c-3.9,4.3-86.4,70.1-70.1,161.8c3,17.1,12.5,35.2,21.3,46.1c4.7,5.8,9.7,9.4,12.1,13.4
		c2.2,3.8,2.9,8.3,4.1,14.6c0.8,4.5,3,10.3,5.3,14.3c10,17.4,27.8,34.7,39.8,42.7c23,15.5,47.7,21.6,67.6,19
		c78.5-10.3,90.2-142.8,145.6-148.2c54.5-5.2,123.5,107.8,95.3,169.7c-13.2,29-50.5,53.4-78.4,70.8c-7.7,4.8-16.3,10.1-22.9,15.5
		c-4.5,3.7-8.3,6.6-11.5,8.9"/>
	<path class="st0" d="M330.3-18c-3.9,3.7-88.1,67.2-74.9,160.6c2.4,16.8,9.9,34.1,17.6,46.4c4.1,6.5,8.6,11.4,11.5,16.6
		c2.7,4.8,4.5,9.9,6.6,16.1c1.5,4.4,4,9.7,6.7,13.7c10.5,16.2,26.7,31.7,39.1,40c21.9,14.7,45.2,20.9,64.4,18.1
		c74.6-10.3,81.5-143.1,139.2-149.3c56.9-6.2,132.3,109,104.7,171.3c-12.9,29.1-51.2,53.7-80,71.5c-7.9,4.9-16.2,9.9-22.9,14.7
		c-4.7,3.4-8.7,6.1-12.2,8.1"/>
	<path class="st0" d="M339.6-18.2c-3.8,3.1-89.6,64.4-79.7,159.4c1.7,16.5,7.3,33,13.9,46.6c3.5,7.2,7.5,13.5,10.9,19.7
		c3.1,5.7,6,11.5,9.2,17.7c2.2,4.3,5.1,9,8,13c10.9,15.1,25.5,28.8,38.4,37.3c20.8,13.8,42.7,20.1,61.2,17.3
		c70.7-10.5,72.8-143.4,132.8-150.5c59.4-7.2,141,110.3,114.2,172.9c-12.5,29.2-51.9,53.9-81.6,72.3c-8.1,5-16.2,9.7-22.9,13.8
		c-4.9,3-9.2,5.5-12.8,7.4"/>
	<path class="st0" d="M348.9-18.5c-3.7,2.4-90.9,61.6-84.5,158.3c5.8,86.3,83.4,161.1,137.2,152.4c66.7-10.7,64.1-143.5,126.4-151.6
		c61.9-8,149.7,111.6,123.6,174.6c-12.2,29.4-52.7,54.2-83.2,73c-14.5,8.9-27.3,15.4-36.5,19.7"/>
</g>
</svg>
