<?xml version="1.0" encoding="utf-8"?>
<!-- Generator: Adobe Illustrator 21.0.0, SVG Export Plug-In . SVG Version: 6.00 Build 0)  -->
<svg version="1.1" id="Isolationsmodus" xmlns="http://www.w3.org/2000/svg" xmlns:xlink="http://www.w3.org/1999/xlink" x="0px"
	 y="0px" viewBox="0 0 841.9 595.3" style="enable-background:new 0 0 841.9 595.3;" xml:space="preserve">
<style type="text/css">
	.st0{fill:none;stroke:#FFED00;stroke-width:0.7931;stroke-miterlimit:10;}
</style>
<g>
	<path class="st0" d="M145.1,0c-5.7,16.8-41.6,126.5,17.3,196.3c20,23.7,64.1,58.5,94.9,44.9c16.5-7.3,32.3-29.9,25-46.8
		c-6.4-14.9-29.4-22.2-45.1-14.9c-15.1,6.9-19,25.1-19.7,28.2c-10.2,46.6,51.8,95,56.2,98.4c45.9,35,100.4,39,134.5,37.5
		c161.1-6.8,265.4-151.4,280.4-137c15.6,14.9-93.8,183.5-133.3,213.2c-3.9,2.9-19.7,14-24.1,32.9c-2.3,10-0.6,18.7,0.7,23.6"/>
	<path class="st0" d="M155.1-0.3c-5.6,16.1-44.8,124.1,12.1,195.1c18.9,23.6,61.3,57.4,90.9,45.2c15.9-6.6,31.1-27.7,24.3-43.4
		c-5.9-13.9-27.6-20.4-42.3-13.2c-14.2,6.9-17.7,24.3-18.3,27.5c-8,45.3,50.6,91.8,55.5,95.4c44.8,33.8,97.7,38.1,131,36.6
		c156.8-7,255.7-151.2,273.5-138.3c13.1,9.5-27.1,92.6-70,153.2c-20.2,28.6-41.2,52.5-54.8,62.6c-4.1,3.1-19.5,13.9-24.1,32
		c-2.4,9.6-1.1,18.1,0,22.9"/>
	<path class="st0" d="M165.1-0.6c-5.6,15.4-48.1,121.6,7,193.8c17.8,23.4,58.5,56.2,86.9,45.4c15.2-5.8,29.8-25.5,23.7-40
		c-5.4-12.8-25.8-18.6-39.6-11.5c-13.3,6.8-16.4,23.6-16.9,26.8c-6,44,49.4,88.6,54.7,92.5c43.8,32.7,95,37.2,127.6,35.6
		c152.6-7.2,246.3-151,266.6-139.5c15.6,8.9-17.7,94-59.9,154.9c-19.9,28.7-42,52.8-56.5,63.4c-4.4,3.2-19.4,13.7-24.1,31.1
		c-2.5,9.3-1.5,17.4-0.7,22.1"/>
	<path class="st0" d="M175.1-0.9c-5.5,14.7-51.3,119.1,1.8,192.6c16.8,23.2,55.7,55.1,82.9,45.7c14.6-5,28.6-23.3,23-36.6
		c-5-11.8-23.9-16.8-36.8-9.8c-12.4,6.7-15.2,22.8-15.5,26.1c-4.1,42.5,48.2,85.4,54,89.6c42.7,31.6,92.2,36.3,124.2,34.7
		c148.3-7.5,236.9-151,259.7-140.7c18.3,8.2-8.3,95.3-49.7,156.7c-19.5,28.9-42.7,53.1-58.3,64.2c-4.6,3.3-19.2,13.5-24.1,30.2
		c-2.7,9-2,16.8-1.5,21.3"/>
	<path class="st0" d="M185.1-1.2c-5.4,14.1-54.5,116.5-3.3,191.3c15.7,23,52.9,53.9,78.9,46c14-4.3,27.4-21,22.3-33.2
		c-4.5-10.7-22.1-15.1-34.1-8.1c-11.5,6.7-13.9,22-14.1,25.4c-2.3,41,47,82.1,53.2,86.7c41.5,30.5,89.5,35.5,120.7,33.7
		c144.1-7.7,227.6-151,252.9-142c21,7.4,1.1,96.7-39.6,158.4c-19.2,29-43.5,53.4-60,65c-4.9,3.4-19.1,13.4-24.2,29.3
		c-2.8,8.6-2.5,16.2-2.2,20.5"/>
	<path class="st0" d="M195.1-1.5c-5.3,13.4-57.7,113.9-8.5,190.1c14.7,22.8,50,52.8,74.9,46.2c13.3-3.5,26.2-18.8,21.7-29.8
		c-4-9.6-20.3-13.3-31.3-6.4c-10.6,6.6-12.6,21.3-12.6,24.7c-0.6,39.4,45.8,78.9,52.5,83.8c40.4,29.4,86.8,34.6,117.3,32.8
		c139.8-7.9,218.3-151,246-143.2c23.7,6.6,10.5,98.1-29.4,160.1c-18.8,29.2-44.3,53.7-61.7,65.8c-5.1,3.6-18.9,13.2-24.2,28.4
		c-2.9,8.3-2.9,15.5-2.9,19.7"/>
	<path class="st0" d="M205.1-1.8c-5.2,12.7-60.9,111.2-13.6,188.9c13.7,22.5,47.2,51.6,70.9,46.5c12.7-2.8,25-16.6,21-26.4
		c-3.5-8.6-18.5-11.5-28.6-4.7c-9.7,6.5-11.3,20.5-11.2,23.9c0.9,37.8,44.6,75.7,51.7,80.9c39.2,28.4,84.1,33.7,113.9,31.8
		c135.6-8.1,209-151.1,239.1-144.5c26.4,5.8,19.9,99.4-19.3,161.8c-18.5,29.3-45.1,54-63.5,66.6c-5.4,3.7-18.7,13-24.2,27.5
		c-3,8-3.4,14.9-3.6,18.9"/>
	<path class="st0" d="M215.1-2.1c-5.2,12-64,108.4-18.8,187.6c12.7,22.2,44.4,50.5,66.9,46.7c12.1-2,23.8-14.4,20.3-23
		c-3-7.5-16.7-9.8-25.8-3c-8.8,6.4-10,19.7-9.8,23.2c2.2,36.2,43.4,72.5,51,78c38,27.4,81.3,32.8,110.4,30.9
		C540.6,329.6,609,187,641.6,192.6c29.1,4.9,29.3,100.8-9.1,163.6c-18.1,29.5-45.8,54.3-65.2,67.4c-5.6,3.8-18.6,12.9-24.3,26.6
		c-3.2,7.7-3.8,14.2-4.4,18.2"/>
	<path class="st0" d="M225.1-2.4C220,8.9,158,103.2,201.2,183.9c11.7,21.9,41.6,49.3,62.9,47c11.4-1.3,22.6-12.1,19.7-19.6
		c-2.5-6.5-14.8-8-23.1-1.3c-7.9,6.4-8.8,18.9-8.4,22.5c3.5,34.5,42.2,69.3,50.2,75.1c36.9,26.4,78.6,31.9,107,29.9
		c127-8.9,190.4-151.4,225.4-147c31.8,4,38.7,102.2,1,165.3c-17.8,29.6-46.6,54.5-67,68.2c-5.8,3.9-18.5,12.7-24.3,25.7
		c-3.3,7.3-4.3,13.6-5.1,17.4"/>
	<path class="st0" d="M235.1-2.8C230.1,7.9,165,100,206,182.4c10.8,21.6,38.8,48.2,58.9,47.3c10.8-0.5,21.4-9.9,19-16.2
		c-2-5.4-13-6.2-20.4,0.4c-7,6.3-7.5,18.1-7,21.8c4.6,32.8,40.9,66.1,49.5,72.2c35.7,25.4,75.9,31.1,103.6,29
		c122.8-9.2,181.1-151.6,218.5-148.2c34.5,3.1,48.2,103.6,11.2,167c-17.4,29.8-47.4,54.8-68.7,68.9c-6.1,4.1-18.3,12.5-24.3,24.8
		c-3.4,7-4.8,12.9-5.8,16.6"/>
	<path class="st0" d="M245.1-3.1c-4.9,10-73.1,99.8-34.2,183.9c9.8,21.3,36,47.1,54.9,47.5c10.1,0.2,20.2-7.7,18.3-12.8
		c-1.5-4.4-11.2-4.5-17.6,2.1c-6,6.2-6.3,17.3-5.6,21.1c5.6,31.1,39.7,62.9,48.8,69.3c34.5,24.4,73.1,30.2,100.1,28
		c118.5-9.4,171.7-151.8,211.6-149.4c37.2,2.2,57.6,104.9,21.3,168.7c-17,29.9-48.1,55.1-70.4,69.7c-6.3,4.2-18.2,12.4-24.4,23.9
		c-3.6,6.7-5.2,12.3-6.6,15.8"/>
	<path class="st0" d="M255.1-3.4c-4.8,9.3-76,96.9-39.4,182.7c8.9,21,33.2,45.9,50.9,47.8c9.5,1,18.9-5.5,17.7-9.4
		c-1.1-3.3-9.3-2.8-14.9,3.8c-5.1,6.1-5,16.5-4.2,20.4c6.5,29.4,38.5,59.7,48,66.3c33.3,23.4,70.4,29.3,96.7,27.1
		c114.3-9.6,162.4-152,204.7-150.7c39.9,1.2,67,106.3,31.4,170.5c-16.7,30.1-48.9,55.4-72.2,70.5c-6.6,4.3-18.1,12.2-24.4,23
		c-3.7,6.4-5.7,11.7-7.3,15"/>
	<path class="st0" d="M265.1-3.7c-4.7,8.7-78.8,93.9-44.5,181.4c8.1,20.6,30.3,44.8,46.9,48c8.9,1.8,17.7-3.3,17-6
		c-0.6-2.3-7.5-1.1-12.1,5.5c-4.2,5.9-3.8,15.7-2.7,19.7c7.3,27.8,37.3,56.5,47.3,63.4c32.1,22.4,67.7,28.4,93.3,26.1
		c110-9.9,153.1-150.4,197.9-151.9c42.5-1.4,76.4,107.7,41.6,172.2c-16.3,30.2-49.7,55.7-73.9,71.3c-6.8,4.4-18,12-24.4,22.1
		c-3.9,6-6.2,11-8,14.2"/>
	<path class="st0" d="M275.1-4c-4.7,8-81.5,90.9-49.7,180.2c7.2,20.2,27.5,43.6,42.9,48.3c8.2,2.5,16.5-1,16.4-2.6
		c-0.1-1.2-5.6,0.6-9.4,7.2c-3.3,5.8-2.6,14.9-1.3,19c8,26.2,36.1,53.3,46.5,60.5c30.9,21.5,65,27.6,89.8,25.2
		c105.7-10.1,143.8-150.8,191-153.2c45.2-2.3,85.8,109,51.7,173.9c-16,30.4-50.5,56-75.6,72.1c-7,4.5-17.9,11.9-24.4,21.2
		c-4,5.7-6.6,10.4-8.7,13.5"/>
	<path class="st0" d="M285.1-4.3c-4.6,7.3-84,87.8-54.8,178.9c6.4,19.9,24.7,42.5,38.9,48.6c7.6,3.3,15.3,1.2,15.7,0.8
		c0.4-0.2-3.8,2.3-6.6,8.9c-2.4,5.6-1.4,14.1,0.1,18.3c8.7,24.6,34.8,50.1,45.8,57.6c29.7,20.5,62.2,26.7,86.4,24.2
		C512,322.7,545,180.3,594.6,178.6c47.9-1.7,95.2,110.4,61.9,175.6c-15.6,30.5-51.2,56.3-77.4,72.9c-7.3,4.7-17.8,11.7-24.5,20.3
		c-4.2,5.4-7.1,9.7-9.5,12.7"/>
	<path class="st0" d="M295.1-4.6c-4.5,6.7-86.5,84.7-60,177.7c5.6,19.5,21.9,41.3,34.9,48.8c7,4,14.1,3.4,15,4.2
		c0.9,0.9-2,3.9-3.9,10.6c-1.5,5.4-0.2,13.3,1.5,17.6c9.3,23,33.6,46.9,45,54.7c28.4,19.6,59.5,25.8,83,23.3
		c97.2-10.5,125.1-152.9,177.2-155.6c50.6-2.7,104.6,111.8,72,177.4c-15.3,30.7-52,56.6-79.1,73.7c-7.5,4.8-17.7,11.5-24.5,19.4
		c-4.4,5-7.6,9.1-10.2,11.9"/>
	<path class="st0" d="M305.1-4.9c-4.4,6-88.8,81.6-65.1,176.5c4.8,19.1,19.1,40.1,30.9,49.1c6.3,4.8,12.9,5.6,14.4,7.6
		c1.4,1.9-0.2,5.6-1.1,12.3c-0.7,5.2,1,12.6,2.9,16.9c9.8,21.5,32.4,43.7,44.3,51.8c27.2,18.6,56.8,25,79.5,22.4
		c93-10.7,115.7-153.1,170.4-156.9c53.3-3.6,114,113.2,82.2,179.1c-14.9,30.8-52.8,56.9-80.8,74.5c-7.8,4.9-17.6,11.3-24.5,18.5
		c-4.5,4.7-8,8.4-10.9,11.1"/>
	<path class="st0" d="M315.1-5.2c-4.3,5.3-90.9,78.5-70.3,175.2c4,18.8,16.3,39,26.9,49.3c5.7,5.5,11.7,7.8,13.7,11
		c1.9,3,1.5,7.2,1.6,14c0.1,5.1,2.1,11.8,4.3,16.1c10.3,20.1,31.2,40.5,43.5,48.9c26,17.7,54.1,24.1,76.1,21.4
		c88.7-10.9,106.4-153.4,163.5-158.1c55.9-4.6,123.4,114.5,92.3,180.8c-14.5,31-53.5,57.1-82.6,75.3c-8,5-17.6,11.1-24.6,17.6
		c-4.7,4.3-8.5,7.8-11.6,10.3"/>
	<path class="st0" d="M325.1-5.5c-4.2,4.6-92.9,75.4-75.4,174c3.3,18.4,13.5,37.8,22.9,49.6c5.1,6.2,10.5,10.1,13,14.4
		c2.4,4.1,3.1,8.9,4.4,15.7c0.9,4.9,3.2,11.1,5.7,15.4c10.8,18.7,29.9,37.3,42.8,46c24.8,16.7,51.3,23.3,72.7,20.5
		c84.5-11.1,97-153.6,156.6-159.4c58.6-5.6,132.8,115.9,102.5,182.6c-14.2,31.1-54.3,57.4-84.3,76.1c-8.3,5.2-17.5,10.9-24.6,16.7
		c-4.9,4-8.9,7.2-12.4,9.5"/>
	<path class="st0" d="M335.1-5.8c-4.2,4-94.7,72.3-80.6,172.7c2.5,18.1,10.7,36.7,18.9,49.9c4.4,7,9.3,12.3,12.4,17.8
		c2.9,5.1,4.8,10.6,7.1,17.4c1.6,4.8,4.4,10.4,7.2,14.7c11.3,17.4,28.7,34.1,42.1,43.1c23.6,15.8,48.6,22.4,69.2,19.5
		c80.3-11.1,87.7-153.9,149.7-160.6c61.2-6.6,142.2,117.3,112.6,184.3c-13.8,31.3-55.1,57.7-86,76.9c-8.5,5.3-17.4,10.7-24.6,15.8
		c-5.1,3.6-9.4,6.5-13.1,8.8"/>
	<path class="st0" d="M345.1-6.1c-4.1,3.3-96.4,69.3-85.7,171.5c1.8,17.7,7.9,35.5,15,50.1c3.8,7.7,8.1,14.5,11.7,21.2
		c3.3,6.2,6.4,12.4,9.9,19.1c2.4,4.7,5.4,9.7,8.6,14c11.8,16.2,27.5,31,41.3,40.1c22.3,14.8,45.9,21.6,65.8,18.6
		c76-11.3,78.3-154.2,142.9-161.8c63.9-7.7,151.7,118.7,122.8,186c-13.5,31.4-55.9,58-87.8,77.7c-8.7,5.4-17.4,10.4-24.6,14.9
		c-5.3,3.2-9.9,5.9-13.8,8"/>
	<path class="st0" d="M355.1-6.4c-4,2.6-97.8,66.3-90.9,170.3c6.2,92.8,89.7,173.2,147.5,163.9c71.7-11.5,68.9-154.4,136-163.1
		c66.5-8.6,161.1,120,132.9,187.7c-13.1,31.6-56.6,58.3-89.5,78.5c-15.6,9.6-29.3,16.5-39.2,21.2"/>
</g>
</svg>
