<?xml version="1.0" encoding="utf-8"?>
<!-- Generator: Adobe Illustrator 21.0.0, SVG Export Plug-In . SVG Version: 6.00 Build 0)  -->
<svg version="1.1" id="Ebene_1" xmlns="http://www.w3.org/2000/svg" xmlns:xlink="http://www.w3.org/1999/xlink" x="0px" y="0px"
	 viewBox="0 0 43.3 42.4" style="enable-background:new 0 0 43.3 42.4;" xml:space="preserve">
<style type="text/css">
	.st0{fill:#0000FF;}
	.st1{fill:none;stroke:#0000FF;stroke-width:0.1199;stroke-miterlimit:10;}
	.st2{fill:none;stroke:url(#SVGID_1_);stroke-miterlimit:10;}
	.st3{fill:none;stroke:url(#SVGID_2_);stroke-miterlimit:10;}
	.st4{fill:none;stroke:url(#SVGID_3_);stroke-miterlimit:10;}
	.st5{fill:none;stroke:url(#SVGID_4_);stroke-miterlimit:10;}
	.st6{fill:none;stroke:url(#SVGID_5_);stroke-miterlimit:10;}
	.st7{fill:none;stroke:url(#SVGID_6_);stroke-miterlimit:10;}
	.st8{fill:none;stroke:url(#SVGID_7_);stroke-miterlimit:10;}
	.st9{fill:none;stroke:url(#SVGID_8_);stroke-miterlimit:10;}
	.st10{fill:none;stroke:url(#SVGID_9_);stroke-miterlimit:10;}
	.st11{fill:none;stroke:url(#SVGID_10_);stroke-miterlimit:10;}
	.st12{fill:none;stroke:url(#SVGID_11_);stroke-miterlimit:10;}
	.st13{fill:none;stroke:url(#SVGID_12_);stroke-miterlimit:10;}
	.st14{fill:none;stroke:url(#SVGID_13_);stroke-miterlimit:10;}
	.st15{fill:none;stroke:url(#SVGID_14_);stroke-miterlimit:10;}
	.st16{fill:none;stroke:url(#SVGID_15_);stroke-miterlimit:10;}
	.st17{fill:none;stroke:url(#SVGID_16_);stroke-miterlimit:10;}
	.st18{fill:none;stroke:url(#SVGID_17_);stroke-miterlimit:10;}
	.st19{fill:none;stroke:url(#SVGID_18_);stroke-miterlimit:10;}
	.st20{fill:none;stroke:url(#SVGID_19_);stroke-miterlimit:10;}
	.st21{fill:none;stroke:url(#SVGID_20_);stroke-miterlimit:10;}
	.st22{fill:none;stroke:url(#SVGID_21_);stroke-miterlimit:10;}
	.st23{fill:none;stroke:url(#SVGID_22_);stroke-miterlimit:10;}
	.st24{fill:none;stroke:url(#SVGID_23_);stroke-miterlimit:10;}
	.st25{fill:none;stroke:url(#SVGID_24_);stroke-miterlimit:10;}
	.st26{fill:none;stroke:url(#SVGID_25_);stroke-miterlimit:10;}
	.st27{fill:none;stroke:url(#SVGID_26_);stroke-miterlimit:10;}
	.st28{fill:none;stroke:url(#SVGID_27_);stroke-miterlimit:10;}
	.st29{fill:none;stroke:url(#SVGID_28_);stroke-miterlimit:10;}
	.st30{fill:none;stroke:url(#SVGID_29_);stroke-miterlimit:10;}
	.st31{fill:none;stroke:url(#SVGID_30_);stroke-miterlimit:10;}
	.st32{fill:none;stroke:url(#SVGID_31_);stroke-miterlimit:10;}
	.st33{fill:none;stroke:url(#SVGID_32_);stroke-miterlimit:10;}
	.st34{fill:none;stroke:url(#SVGID_33_);stroke-miterlimit:10;}
	.st35{fill:none;stroke:url(#SVGID_34_);stroke-miterlimit:10;}
	.st36{fill:none;stroke:url(#SVGID_35_);stroke-miterlimit:10;}
	.st37{fill:none;stroke:url(#SVGID_36_);stroke-miterlimit:10;}
	.st38{fill:none;stroke:url(#SVGID_37_);stroke-miterlimit:10;}
	.st39{fill:none;stroke:url(#SVGID_38_);stroke-miterlimit:10;}
	.st40{fill:none;stroke:url(#SVGID_39_);stroke-miterlimit:10;}
	.st41{fill:none;stroke:url(#SVGID_40_);stroke-miterlimit:10;}
	.st42{fill:none;stroke:url(#SVGID_41_);stroke-miterlimit:10;}
	.st43{fill:none;stroke:url(#SVGID_42_);stroke-miterlimit:10;}
	.st44{fill:none;stroke:url(#SVGID_43_);stroke-miterlimit:10;}
	.st45{fill:none;stroke:url(#SVGID_44_);stroke-miterlimit:10;}
	.st46{fill:#FF39F8;}
	.st47{font-family:'MinionPro-SemiboldIt';}
	.st48{font-size:15px;}
</style>
<ellipse class="st0" cx="21.1" cy="21.4" rx="9.9" ry="9.8"/>
<g>
	<path class="st1" d="M-79.3-12.2c-1,2.9-7.2,21.9,3,34c3.5,4.1,11.1,10.1,16.4,7.8c2.9-1.3,5.6-5.2,4.3-8.1
		c-1.1-2.6-5.1-3.8-7.8-2.6c-2.6,1.2-3.3,4.3-3.4,4.9c-1.8,8.1,9,16.4,9.7,17c0.3,0.3,0.6,0.4,0.8,0.6c12.9,8.6,26.5,2.6,32.2,9.1
		c0.5,0.6,2.1,1.8,4.5,2.9c1.9,0.8,2.5,0.7,3.8,1.5c2.5,1.5,2.1,3.3,3.8,4.6c3.5,2.6,8.3-2.2,12,0.3c2.3,1.6,2,4.5,4.5,5.1
		c1.2,0.3,2.4-0.1,3.2-0.5"/>
	<path class="st1" d="M-78.2-11.8c-1.7,3.6-7.7,22.1,2.1,33.8c3.4,4,10.8,9.8,16,7.6c2.8-1.2,5.5-4.9,4.3-7.7
		c-1-2.4-4.7-3.6-7.2-2.4c-2.4,1.2-3,4.1-3.1,4.7c-1.3,7.7,8.9,15.7,9.7,16.3c0.3,0.2,0.6,0.4,0.8,0.5c12.6,8.2,25.7,2.6,31.3,9
		c0.5,0.6,2.1,1.9,4.5,3c0.2,0.1,0.3,0.1,0.5,0.2c1.5,0.6,2.2,0.4,3.3,1c2,1,2.1,2.2,3,3.3c0.2,0.3,0.5,0.6,0.9,0.9
		c0.5,0.4,1.1,0.7,1.7,0.8c1.4,0.3,3-0.2,4.6-0.6c1.9-0.5,4-0.9,5.7,0.4c1.4,1,1.9,2.4,2.5,3.6c0.4,0.8,0.9,1.4,1.8,1.7
		c1.1,0.4,2.2,0,2.9-0.4"/>
	<path class="st1" d="M-77.2-11.5c-2.4,4.3-8.2,22.2,1.2,33.5c3.2,3.9,10.4,9.5,15.6,7.4c2.7-1.1,5.3-4.6,4.3-7.3
		c-0.9-2.3-4.3-3.4-6.7-2.3c-2.3,1.1-2.8,4-2.8,4.4c-0.8,7.4,8.7,14.9,9.7,15.5c0.3,0.2,0.6,0.4,0.8,0.5c12.3,7.8,25,2.6,30.4,8.9
		c0.5,0.6,2.1,2.1,4.5,3c0.2,0.1,0.4,0.1,0.5,0.2c1.5,0.5,2.2,0.3,3.3,0.9c1.9,0.9,2.2,1.9,3,3c0.3,0.3,0.5,0.6,0.9,0.9
		c0.5,0.4,1.1,0.7,1.7,0.8c1.5,0.3,3.1-0.1,4.7-0.5c1.9-0.4,4-0.7,5.8,0.5c1.4,1,1.9,2.4,2.5,3.7c0.4,0.8,0.9,1.4,1.7,1.8
		c1,0.4,2,0.1,2.6-0.2"/>
	<path class="st1" d="M-76.1-11.1c-3.2,5-8.7,22.4,0.3,33.3c3.2,3.8,10.1,9.2,15.1,7.3c2.7-1,5.2-4.4,4.4-6.8
		c-0.8-2.2-4-3.2-6.1-2.1c-2.1,1.1-2.5,3.8-2.5,4.2c-0.3,7,8.6,14.1,9.7,14.8c0.3,0.2,0.6,0.4,0.8,0.5c12,7.4,24.3,2.7,29.5,8.8
		c0.6,0.6,2.2,2.2,4.6,3.1c0.2,0.1,0.4,0.1,0.5,0.2c1.5,0.5,2.2,0.2,3.3,0.7c1.9,0.7,2.2,1.6,3.1,2.6c0.3,0.3,0.5,0.6,0.9,0.9
		c0.5,0.4,1.1,0.7,1.7,0.9c1.5,0.4,3.1-0.1,4.7-0.4c1.8-0.3,4-0.6,5.8,0.7c1.4,1,1.9,2.5,2.5,3.7c0.4,0.8,0.8,1.5,1.6,1.8
		c0.9,0.5,1.8,0.3,2.3,0"/>
	<path class="st1" d="M-75.1-10.7C-79-5-84.3,11.9-75.7,22.5c3.1,3.7,9.8,8.9,14.7,7.1c2.6-0.9,5.1-4.1,4.4-6.4
		c-0.6-2.1-3.6-3-5.5-2c-1.9,1-2.2,3.5-2.2,4c0.2,6.6,8.5,13.4,9.7,14c0.3,0.2,0.6,0.4,0.8,0.5c11.6,7,23.5,2.7,28.6,8.8
		c0.6,0.7,2.2,2.3,4.6,3.2c0.2,0.1,0.4,0.1,0.5,0.2c1.5,0.4,2.2,0.2,3.3,0.5c1.9,0.5,2.2,1.2,3.1,2.2c0.3,0.3,0.6,0.6,0.9,0.9
		c0.5,0.4,1.1,0.8,1.7,1c1.5,0.5,3.1,0,4.8-0.3c1.8-0.3,4-0.5,5.8,0.9c1.4,1,1.9,2.5,2.5,3.8c0.4,0.8,0.8,1.5,1.4,1.9
		c0.9,0.5,1.5,0.4,2,0.2"/>
	<path class="st1" d="M-74.1-10.3c-4.6,6.4-9.7,22.7-1.5,32.9c3,3.6,9.4,8.6,14.3,6.9c2.5-0.9,5-3.8,4.4-6c-0.5-1.9-3.2-2.8-5-1.8
		c-1.7,1-2.1,3.4-1.9,3.8c-0.6,6.2,8.4,12.6,9.6,13.3c0.3,0.2,0.6,0.4,0.7,0.5C-42,45.9-30.6,42-25.6,48c0.6,0.7,2.2,2.4,4.6,3.2
		c0.2,0.1,0.4,0.1,0.5,0.2c1.5,0.4,2.2,0.1,3.3,0.3c1.9,0.4,2.2,0.9,3.2,1.8c0.3,0.3,0.6,0.6,0.9,0.9c0.5,0.4,1,0.8,1.7,1
		c1.5,0.5,3.1,0,4.8-0.2c1.7-0.2,4-0.4,5.9,1c1.4,1,2,2.5,2.5,3.8c0.3,0.9,0.7,1.5,1.3,2c0.8,0.6,1.3,0.5,1.8,0.3"/>
	<path class="st1" d="M-73-9.9c-5.3,7.1-10.2,22.9-2.4,32.7c2.8,3.5,9.1,8.3,13.9,6.8c2.5-0.8,4.8-3.5,4.4-5.6
		c-0.4-1.8-2.8-2.6-4.4-1.7c-1.6,0.9-1.8,3.2-1.6,3.6c-0.4,5.9,8.3,11.8,9.6,12.5c0.3,0.2,0.5,0.3,0.7,0.4c11,6.3,22,2.7,26.8,8.6
		c0.6,0.7,2.2,2.5,4.6,3.3c0.2,0.1,0.4,0.1,0.6,0.2c1.5,0.4,2.2,0,3.3,0.1c1.8,0.2,2.2,0.6,3.2,1.4c0.3,0.3,0.6,0.6,0.9,0.9
		c0.5,0.5,1,0.8,1.7,1.1c1.5,0.6,3.2,0.1,4.9-0.1c1.6-0.2,4-0.2,5.9,1.2c1.4,1,2,2.5,2.5,3.9C2,60.3,2.4,61,2.9,61.5
		C3.5,62.1,4,62.2,4.4,62"/>
	<path class="st1" d="M-72-9.5c-6,7.8-10.7,23.1-3.2,32.5c2.7,3.5,8.7,8,13.4,6.6c2.4-0.7,4.7-3.3,4.4-5.1c-0.3-1.7-2.5-2.4-3.8-1.6
		c-1.4,0.9-1.6,3-1.3,3.4c-0.1,5.5,8.2,11.1,9.6,11.8c0.3,0.2,0.5,0.3,0.7,0.4c10.6,5.9,21.2,2.8,25.9,8.5c0.6,0.7,2.3,2.6,4.7,3.4
		c0.2,0.1,0.4,0.1,0.6,0.1c1.5,0.3,2.2-0.1,3.3-0.1c1.8,0.1,2.2,0.2,3.3,1c0.3,0.3,0.6,0.6,1,0.9c0.5,0.5,1,0.8,1.7,1.1
		c1.5,0.6,3.2,0.1,4.9,0c1.6-0.1,4-0.1,5.9,1.4c1.4,1.1,2,2.6,2.5,4c0.3,0.9,0.6,1.6,1,2.1c0.6,0.7,0.9,0.8,1.2,0.7"/>
	<path class="st1" d="M-70.9-9.1c-6.8,8.5-11.2,23.2-4.1,32.2c2.6,3.4,8.4,7.7,13,6.4c2.3-0.6,4.6-3,4.4-4.7
		c-0.2-1.5-2.1-2.2-3.2-1.4c-1.2,0.8-1.3,2.8-1,3.1c0.1,5.1,8,10.3,9.6,11.1c0.3,0.1,0.5,0.3,0.7,0.4c10.3,5.5,20.5,2.8,25,8.4
		c0.6,0.7,2.3,2.7,4.7,3.5c0.2,0.1,0.4,0.1,0.6,0.1c1.5,0.3,2.3-0.2,3.3-0.3c1.8-0.1,2.2-0.1,3.3,0.6c0.3,0.2,0.6,0.6,1,0.9
		c0.5,0.5,1,0.9,1.7,1.2c1.5,0.7,3.3,0.5,5,0.1c1.5-0.4,4,0,6,1.6c1.4,1.1,2.1,2.6,2.5,4c0.3,0.9,0.5,1.7,0.9,2.2
		c0.5,0.8,0.7,0.9,0.9,0.9"/>
	<path class="st1" d="M-69.9-8.7c-7.5,9.2-11.7,23.4-5,32c2.5,3.3,8.1,7.4,12.6,6.3c2.2-0.5,4.5-2.7,4.4-4.3c0-1.4-1.7-2-2.7-1.3
		c-1.1,0.8-1.1,2.6-0.7,2.9c0.3,4.8,7.9,9.5,9.6,10.3c0.3,0.1,0.5,0.3,0.7,0.4c9.9,5.2,19.7,2.8,24.2,8.3c0.6,0.8,2.3,2.8,4.7,3.5
		c0.2,0.1,0.4,0.1,0.6,0.1c1.5,0.2,2.3-0.3,3.3-0.5c1.7-0.3,2.3-0.5,3.4,0.3c0.4,0.2,0.6,0.6,1,0.9c0.4,0.5,0.9,0.9,1.6,1.2
		c1.5,0.8,3.3,0.6,5,0.2c1.4-0.3,4,0.1,6,1.7c1.4,1.1,2.1,2.6,2.5,4.1c0.3,0.9,0.5,1.7,0.8,2.3c0.4,0.8,0.4,1.1,0.7,1"/>
	<path class="st1" d="M-68.8-8.3c-8.2,9.9-12.3,23.6-5.9,31.8c2.4,3.2,7.7,7,12.2,6.1c2.2-0.5,4.3-2.4,4.4-3.9
		c0.1-1.3-1.3-1.8-2.1-1.1c-0.9,0.7-0.8,2.4-0.4,2.7c0.6,4.4,7.8,8.8,9.6,9.6c0.3,0.1,0.5,0.3,0.7,0.3c9.6,4.8,19,2.8,23.3,8.2
		c0.6,0.8,2.4,2.9,4.7,3.6c0.2,0.1,0.4,0.1,0.6,0.1c1.5,0.2,2.3-0.4,3.3-0.7c1.7-0.4,2.3-0.8,3.4-0.1c0.4,0.2,0.6,0.6,1,0.9
		c0.4,0.5,0.9,0.9,1.6,1.3c1.6,0.8,3.3,0.6,5.1,0.3c1.4-0.3,4,0.2,6.1,1.9C0,54,0.7,55.5,1.1,57c0.2,1,0.4,1.8,0.6,2.4
		c0.3,0.9,0.2,1.2,0.4,1.2"/>
	<path class="st1" d="M-67.8-7.9c-8.9,10.6-12.8,23.7-6.8,31.6c2.3,3.1,7.4,6.7,11.7,5.9c2.1-0.4,4.2-2.2,4.4-3.4
		c0.2-1.1-0.9-1.6-1.5-1c-0.7,0.7-0.6,2.2-0.1,2.5c0.8,4,7.7,8,9.5,8.8c0.3,0.1,0.5,0.2,0.7,0.3c9.2,4.4,18.2,2.9,22.4,8.1
		c0.6,0.8,2.4,3,4.8,3.7c0.2,0.1,0.4,0.1,0.6,0.1c1.5,0.2,2.3-0.5,3.3-0.9c1.7-0.6,2.3-1.1,3.4-0.5c0.4,0.2,0.7,0.5,1,0.9
		c0.4,0.5,0.9,0.9,1.6,1.3c1.6,0.9,3.3,0.7,5.1,0.4c1.3-0.2,4,0.4,6.1,2.1c1.4,1.1,2.2,2.7,2.5,4.2c0.2,1,0.4,1.8,0.5,2.4
		c0.2,1,0,1.3,0.1,1.4"/>
	<path class="st1" d="M-66.7-7.5C-76.4,3.8-80,16.4-74.4,23.9c2.2,3,7,6.4,11.3,5.8c2-0.3,4.1-1.9,4.4-3c0.3-1-0.5-1.4-1-0.8
		c-0.5,0.7-0.3,2,0.2,2.3c1,3.7,7.5,7.3,9.5,8.1c0.3,0.1,0.5,0.2,0.6,0.3c8.9,4.1,17.5,2.9,21.5,8c0.6,0.8,2.4,3.1,4.8,3.7
		c0.2,0.1,0.4,0.1,0.6,0.1c1.4,0.1,2.3-0.6,3.3-1c1.6-0.7,2.3-1.5,3.5-0.9c0.4,0.2,0.7,0.5,1,1c0.4,0.5,0.9,1,1.6,1.4
		c1.6,0.9,3.3,0.8,5.2,0.5c1.3-0.2,4,0.5,6.1,2.2c1.4,1.1,2.2,2.7,2.5,4.3c0.2,1,0.3,1.9,0.4,2.5c0.1,1-0.2,1.5-0.2,1.6"/>
	<path class="st1" d="M-65.7-7.1C-76.1,4.9-79.5,17-74.3,24.1c2.1,2.9,6.7,6.1,10.9,5.6c2-0.2,4-1.6,4.5-2.6
		c0.4-0.9-0.2-1.2-0.4-0.7c-0.4,0.5-0.1,1.8,0.5,2.1c1.3,3.3,7.4,6.5,9.5,7.3c0.2,0.1,0.4,0.2,0.6,0.3c8.5,3.7,16.7,2.9,20.6,8
		c0.6,0.8,2.5,3.2,4.8,3.8c0.2,0,0.4,0.1,0.6,0.1c1.4,0.1,2.3-0.7,3.3-1.2c1.6-0.9,2.3-1.8,3.5-1.3c0.4,0.2,0.7,0.5,1,1
		c0.4,0.5,0.9,1,1.6,1.5c1.6,1,3.3,0.8,5.2,0.6c1.2-0.1,4,0.6,6.2,2.4c1.4,1.2,2.2,2.7,2.5,4.3c0.2,1,0.2,1.9,0.2,2.6
		c0,1.1-0.4,1.6-0.5,1.7"/>
	<path class="st1" d="M-64.7-6.7c-11.1,12.6-14.3,24.3-9.5,31c2,2.8,6.4,5.8,10.5,5.4c1.9-0.2,3.8-1.3,4.5-2.2
		c0.5-0.7,0.1-1,0.2-0.5c-0.2,0.5,0.2,1.6,0.7,1.8c1.5,2.9,7.3,5.8,9.5,6.6c0.2,0.1,0.4,0.2,0.6,0.3c8.2,3.4,15.9,3,19.7,7.9
		c0.7,0.9,2.5,3.3,4.8,3.9c0.2,0,0.4,0.1,0.6,0.1c1.4,0.1,2.3-0.8,3.3-1.4c1.6-1,2.4-2.2,3.6-1.7c0.4,0.2,0.7,0.5,1,1
		c0.4,0.5,0.8,1,1.6,1.5c1.6,1,3.4,0.5,5.3,0.7c1.1,0.1,4,0.7,6.2,2.6c1.4,1.2,2.2,2.7,2.5,4.4c0.2,1,0.1,2,0.1,2.7
		c-0.1,1.2-0.6,1.7-0.7,1.9"/>
	<path class="st1" d="M-63.6-6.3C-75.4,7-78.4,18.1-74,24.5c1.9,2.7,6,5.5,10,5.3c1.8-0.1,3.7-1,4.5-1.7c0.7-0.6,0.5-0.8,0.7-0.4
		c-0.1,0.4,0.4,1.4,1,1.6c1.7,2.6,7.2,5,9.5,5.8c0.2,0.1,0.4,0.2,0.6,0.2c7.8,3.1,15.2,3,18.8,7.8c0.7,0.9,2.5,3.4,4.9,3.9
		c0.2,0,0.4,0.1,0.6,0.1c1.4,0.1,2.3-0.8,3.3-1.6c1.6-1.2,2.4-2.5,3.6-2.1c0.5,0.2,0.7,0.5,1.1,1c0.4,0.5,0.8,1.1,1.6,1.6
		c1.6,1.1,3.4,0.5,5.4,0.8c1.1,0.1,4,0.8,6.2,2.7c1.4,1.2,2.3,2.7,2.5,4.4c0.1,1.1,0.1,2-0.1,2.8c-0.2,1.2-0.9,1.9-1,2.1"/>
	<path class="st1" d="M-62.6-5.9c-12.5,14-15.3,24.6-11.3,30.5c1.8,2.6,5.7,5.3,9.6,5.1c1.7-0.1,3.6-0.8,4.5-1.3
		c0.8-0.5,0.9-0.6,1.3-0.2c0.1,0.4,0.6,1.2,1.3,1.4c2,2.2,7,4.3,9.5,5.1c0.2,0.1,0.4,0.2,0.6,0.2c7.4,2.7,14.4,3,17.9,7.7
		c0.7,0.9,2.6,3.5,4.9,4c0.2,0,0.4,0,0.6,0.1c1.4,0.1,2.3-0.9,3.3-1.8c1.5-1.3,2.4-2.9,3.7-2.4c0.5,0.2,0.7,0.5,1.1,1
		c0.4,0.5,0.8,1.1,1.6,1.6c1.6,1.2,3.4,0.5,5.4,0.8c1,0.2,4,1,6.3,2.9c1.4,1.2,2.3,2.8,2.5,4.5c0.1,1.1,0,2.1-0.2,2.8
		c-0.3,1.3-1.1,2-1.3,2.3"/>
	<path class="st1" d="M-61.5-5.5C-74.8,9.2-77.4,19.3-73.7,24.8c1.7,2.5,5.3,4.8,9.2,4.9c1.7,0.1,3.4-0.5,4.5-0.9
		c0.9-0.3,1.2-0.4,1.9-0.1c0.3,0.3,0.9,1,1.6,1.2c2.2,1.8,6.9,3.6,9.5,4.4c0.2,0.1,0.4,0.1,0.6,0.2c7.1,2.4,13.6,3.1,17,7.6
		c0.7,0.9,2.6,3.6,4.9,4.1c0.2,0,0.4,0.1,0.6,0c1.4,0,2.4-1,3.3-2c1.5-1.5,2.4-3.2,3.7-2.8c0.5,0.1,0.8,0.5,1.1,1
		c0.4,0.5,0.8,1.1,1.6,1.7c1.7,1.2,3.4,0.5,5.5,0.9c1,0.2,4,1.1,6.3,3.1c1.4,1.2,2.3,2.8,2.5,4.6c0.1,1.1-0.1,2.1-0.3,2.9
		c-0.4,1.3-1.3,2.2-1.6,2.4"/>
	<path class="st1" d="M-60.5-5.1c-14,15.4-16.4,25-13,30.1c1.6,2.5,5,4.5,8.8,4.8c1.6,0.1,3.3-0.2,4.5-0.5c1-0.2,1.7-0.3,2.5,0.1
		c0.4,0.2,1.2,0.7,1.9,1c2.6,1,6.8,2.8,9.4,3.6c0.2,0.1,0.4,0.1,0.5,0.2c6.7,2.1,12.9,3.1,16.2,7.5c0.7,0.9,2.6,3.7,4.9,4.1
		c0.2,0,0.4,0,0.6,0c1.4-0.1,2.4-1.1,3.3-2.2c1.5-1.6,2.5-3.5,3.8-3.2c0.5,0.1,0.8,0.5,1.1,1c0.3,0.5,0.8,1.1,1.5,1.7
		c1.7,1.3,3.5,0.5,5.5,1c0.9,0.2,4,1.2,6.3,3.3c1.4,1.2,2.4,2.8,2.5,4.6c0.1,1.1-0.1,2.2-0.5,3C-1,56.4-2,57.3-2.4,57.6"/>
	<path class="st1" d="M-59.4-4.7c-14.7,16.1-16.9,25.2-13.9,29.9c1.5,2.4,4.7,4.1,8.3,4.6c1.5,0.2,3.2,0,4.5,0c1.1-0.1,2-0.1,3,0.2
		c0.6,0.2,1.4,0.5,2.2,0.8c2.8,0.8,6.6,2.1,9.4,2.9c0.2,0,0.4,0.1,0.5,0.1c6.3,1.8,12.1,3.1,15.3,7.4c0.7,0.9,2.6,3.8,4.9,4.2
		c0.2,0,0.4,0,0.7,0c1.4-0.1,2.4-1.2,3.4-2.4c1.5-1.8,2.5-3.9,3.8-3.6c0.5,0.1,0.8,0.5,1.1,1c0.3,0.5,0.7,1.2,1.5,1.8
		c1.7,1.3,3.5,0.5,5.6,1.1c0.8,0.2,4.1,1.3,6.4,3.4c1.4,1.3,2.4,2.8,2.5,4.7c0.1,1.1-0.2,2.2-0.6,3.1c-0.7,1.5-1.7,2.4-2.1,2.8"/>
	<path class="st1" d="M-58.4-4.3C-73.8,12.5-75.8,21-73.2,25.4c1.4,2.3,4.3,3.8,7.9,4.4c1.5,0.3,3.1,0.3,4.5,0.4
		c1.2,0.1,2.4,0.1,3.6,0.4c0.8,0.1,1.6,0.4,2.5,0.5c2.9,0.6,6.5,1.4,9.4,2.1c0.2,0,0.3,0.1,0.5,0.1c6,1.5,11.3,3.2,14.4,7.3
		c0.7,1,2.7,3.9,5,4.3c0.2,0,0.4,0,0.7,0c1.4-0.1,2.4-1.3,3.4-2.6c1.4-1.9,2.5-4.2,3.9-4c0.5,0.1,0.8,0.5,1.1,1
		c0.3,0.5,0.7,1.2,1.5,1.8c1.7,1.4,3.5,0.5,5.6,1.2c0.8,0.3,4.1,1.4,6.4,3.6c1.4,1.3,2.4,2.9,2.5,4.7c0.1,1.2-0.3,2.2-0.7,3.1
		c-0.8,1.5-1.9,2.6-2.4,2.9"/>
	<path class="st1" d="M-57.3-3.9c-16.1,17.5-18,25.5-15.7,29.5c5,8.8,33.5,2.3,42.4,14.6c0.8,1.1,3.1,4.7,5.7,4.4
		c3.4-0.4,5-7.5,7.3-7.1c1.1,0.2,1,1.5,2.6,2.9c1.7,1.4,3.6,0.5,5.7,1.3c1.2,0.4,8.8,3.4,9,8.6c0.1,3.2-2.7,5.6-3.6,6.3"/>
</g>
<g>
	<linearGradient id="SVGID_1_" gradientUnits="userSpaceOnUse" x1="-390.7932" y1="27.441" x2="419.352" y2="27.441">
		<stop  offset="0" style="stop-color:#020202"/>
		<stop  offset="1" style="stop-color:#000000"/>
	</linearGradient>
	<path class="st2" d="M-367.2-316.1c-8.3,24.2-60,182.4,24.9,283.2c28.8,34.2,92.5,84.4,136.9,64.8c23.8-10.5,46.5-43.2,36-67.6
		c-9.3-21.5-42.4-32-65-21.5c-21.7,10-27.5,36.2-28.4,40.7c-14.7,67.3,74.8,137.1,81.1,141.9c66.2,50.5,144.8,56.2,194,54.1
		C244.6,169.7,395-38.9,416.7-18.2c22.5,21.6-135.4,264.7-192.2,307.6c-5.6,4.3-28.4,20.2-34.7,47.4c-3.3,14.4-0.9,27,1,34.1"/>
	<linearGradient id="SVGID_2_" gradientUnits="userSpaceOnUse" x1="-379.7467" y1="26.3786" x2="411.1233" y2="26.3786">
		<stop  offset="0" style="stop-color:#020202"/>
		<stop  offset="1" style="stop-color:#000000"/>
	</linearGradient>
	<path class="st3" d="M-352.7-316.5c-8.1,23.2-64.7,179,17.5,281.4c27.3,34,88.4,82.8,131.1,65.2c22.9-9.5,44.8-40,35.1-62.7
		c-8.6-20-39.8-29.4-61.1-19.1c-20.4,9.9-25.6,35.1-26.4,39.7c-11.6,65.4,73,132.4,80,137.7c64.7,48.8,140.9,54.9,189,52.8
		C238.7,168.3,381.4-39.7,407-21c18.9,13.7-39.1,133.6-101,221c-29.2,41.2-59.4,75.8-79.1,90.3c-6,4.4-28.2,20-34.7,46.1
		c-3.5,13.9-1.5,26.1,0,33"/>
	<linearGradient id="SVGID_3_" gradientUnits="userSpaceOnUse" x1="-368.9552" y1="25.3149" x2="403.5029" y2="25.3149">
		<stop  offset="0" style="stop-color:#020202"/>
		<stop  offset="1" style="stop-color:#000000"/>
	</linearGradient>
	<path class="st4" d="M-338.3-316.9c-8,22.2-69.3,175.4,10.1,279.6c25.7,33.8,84.4,81.1,125.3,65.5c22-8.4,43-36.8,34.1-57.7
		c-7.9-18.5-37.2-26.8-57.1-16.6c-19.2,9.8-23.7,34-24.4,38.6c-8.6,63.4,71.3,127.8,78.9,133.5c63.1,47.1,137,53.7,184.1,51.4
		C232.8,166.9,368-40.5,397.3-23.9c22.6,12.8-25.5,135.5-86.4,223.5c-28.7,41.4-60.6,76.2-81.6,91.4c-6.3,4.6-27.9,19.8-34.8,44.8
		c-3.7,13.4-2.2,25.2-1.1,31.9"/>
	<linearGradient id="SVGID_4_" gradientUnits="userSpaceOnUse" x1="-358.4041" y1="24.2501" x2="396.6388" y2="24.2501">
		<stop  offset="0" style="stop-color:#020202"/>
		<stop  offset="1" style="stop-color:#000000"/>
	</linearGradient>
	<path class="st5" d="M-323.9-317.4c-7.9,21.3-74,171.8,2.6,277.8c24.2,33.5,80.3,79.4,119.6,65.9c21.1-7.3,41.3-33.6,33.2-52.8
		c-7.2-17-34.6-24.3-53.1-14.2C-239.5-31-243.5-7.8-244-3.1c-5.9,61.3,69.5,123.1,77.9,129.3c61.5,45.5,133.1,52.4,179.1,50
		c214-10.8,341.7-217.8,374.7-203c26.4,11.8-12,137.5-71.8,226c-28.2,41.7-61.7,76.6-84.1,92.6c-6.7,4.8-27.7,19.5-34.8,43.5
		c-3.8,12.9-2.9,24.2-2.1,30.7"/>
	<linearGradient id="SVGID_5_" gradientUnits="userSpaceOnUse" x1="-348.0782" y1="23.184" x2="390.6882" y2="23.184">
		<stop  offset="0" style="stop-color:#020202"/>
		<stop  offset="1" style="stop-color:#000000"/>
	</linearGradient>
	<path class="st6" d="M-309.5-317.8c-7.8,20.3-78.7,168-4.8,276C-291.6-8.6-238,36-200.4,24.5c20.2-6.2,39.6-30.3,32.2-47.9
		c-6.5-15.4-31.9-21.7-49.2-11.7c-16.6,9.6-20,31.8-20.3,36.6c-3.3,59.1,67.8,118.5,76.8,125.1c59.9,44,129.1,51.2,174.2,48.7
		C221,164.1,341.5-42.6,378-29.6c30.2,10.7,1.6,139.5-57.1,228.5c-27.7,41.9-62.8,77-86.6,93.7c-7,5-27.5,19.3-34.9,42.2
		c-4,12.5-3.6,23.3-3.2,29.6"/>
	<linearGradient id="SVGID_6_" gradientUnits="userSpaceOnUse" x1="-337.962" y1="22.1165" x2="385.8019" y2="22.1165">
		<stop  offset="0" style="stop-color:#020202"/>
		<stop  offset="1" style="stop-color:#000000"/>
	</linearGradient>
	<path class="st7" d="M-295-318.3c-7.7,19.3-83.3,164.2-12.2,274.2c21.2,32.8,72.2,76.1,108.1,66.7c19.2-5.1,37.8-27.1,31.2-43
		c-5.7-13.9-29.3-19.2-45.2-9.3c-15.3,9.5-18.2,30.7-18.2,35.6c-0.9,56.9,66,113.9,75.7,120.9c58.2,42.5,125.2,49.9,169.2,47.3
		C215.2,162.7,328.3-43.7,368.3-32.5c34.1,9.6,15.2,141.5-42.5,231c-27.1,42.1-63.9,77.4-89.1,94.9c-7.4,5.1-27.2,19-34.9,40.9
		c-4.2,12-4.2,22.4-4.2,28.5"/>
	<linearGradient id="SVGID_7_" gradientUnits="userSpaceOnUse" x1="-328.04" y1="21.08" x2="382.0933" y2="21.08">
		<stop  offset="0" style="stop-color:#020202"/>
		<stop  offset="1" style="stop-color:#000000"/>
	</linearGradient>
	<path class="st8" d="M-280.6-318.7c-7.5,18.3-87.8,160.4-19.7,272.4c19.7,32.5,68.1,74.5,102.3,67c18.3-4,36.1-23.9,30.3-38.1
		c-5-12.4-26.7-16.6-41.3-6.8c-14,9.4-16.3,29.5-16.2,34.6c1.2,54.5,64.3,109.2,74.6,116.7c56.6,41,121.3,48.7,164.3,45.9
		C209.3,161.3,315.2-45,358.7-35.4c38,8.4,28.7,143.5-27.8,233.4c-26.6,42.3-65,77.8-91.6,96c-7.7,5.3-27,18.8-34.9,39.6
		c-4.4,11.5-4.9,21.5-5.3,27.3"/>
	<linearGradient id="SVGID_8_" gradientUnits="userSpaceOnUse" x1="-318.2973" y1="20.0441" x2="379.6024" y2="20.0441">
		<stop  offset="0" style="stop-color:#020202"/>
		<stop  offset="1" style="stop-color:#000000"/>
	</linearGradient>
	<path class="st9" d="M-266.2-319.1c-7.4,17.4-92.4,156.4-27.1,270.6c18.3,32.1,64.1,72.8,96.5,67.4c17.4-2.9,34.3-20.7,29.3-33.2
		c-4.3-10.9-24.1-14.1-37.3-4.4c-12.7,9.3-14.5,28.4-14.2,33.5c3.2,52.2,62.6,104.6,73.6,112.5C-90.5,166.9-28,174.7,14,171.9
		C203.4,159.4,302-46.2,349-38.3c42,7.1,42.3,145.4-13.2,235.9c-26.1,42.5-66.1,78.3-94.1,97.2c-8.1,5.5-26.8,18.6-35,38.3
		c-4.6,11.1-5.6,20.5-6.3,26.2"/>
	<linearGradient id="SVGID_9_" gradientUnits="userSpaceOnUse" x1="-308.7198" y1="19.0088" x2="378.2811" y2="19.0088">
		<stop  offset="0" style="stop-color:#020202"/>
		<stop  offset="1" style="stop-color:#000000"/>
	</linearGradient>
	<path class="st10" d="M-251.8-319.6c-7.3,16.4-96.8,152.3-34.5,268.9c16.9,31.6,60,71.1,90.8,67.8c16.5-1.9,32.6-17.5,28.4-28.3
		c-3.6-9.4-21.4-11.6-33.3-1.9c-11.4,9.2-12.6,27.2-12.1,32.5c5,49.7,60.8,99.9,72.5,108.3c53.2,38.1,113.4,46.1,154.4,43.2
		C197.5,158,288.8-47.6,339.3-41.1c45.9,5.8,55.9,147.4,1.4,238.4c-25.6,42.8-67.2,78.7-96.6,98.3c-8.4,5.7-26.6,18.3-35,37
		c-4.8,10.6-6.2,19.6-7.4,25.1"/>
	<linearGradient id="SVGID_10_" gradientUnits="userSpaceOnUse" x1="-299.2945" y1="17.9735" x2="378.009" y2="17.9735">
		<stop  offset="0" style="stop-color:#020202"/>
		<stop  offset="1" style="stop-color:#000000"/>
	</linearGradient>
	<path class="st11" d="M-237.4-320c-7.2,15.4-101.2,148.2-41.9,267.1c15.5,31.2,56,69.5,85,68.2c15.6-0.8,30.8-14.3,27.4-23.4
		c-2.9-7.8-18.8-9-29.4,0.5c-10,9-10.8,26.1-10.1,31.5c6.6,47.3,59.1,95.3,71.4,104.1c51.5,36.6,109.5,44.8,149.4,41.8
		C191.6,156.5,275.7-48.9,329.7-44c49.8,4.5,69.5,149.4,16.1,240.9c-25.1,43-68.3,79.1-99.1,99.5c-8.8,5.8-26.4,18.1-35.1,35.7
		c-5,10.1-6.9,18.7-8.4,24"/>
	<linearGradient id="SVGID_11_" gradientUnits="userSpaceOnUse" x1="-290.0098" y1="16.938" x2="378.6307" y2="16.938">
		<stop  offset="0" style="stop-color:#020202"/>
		<stop  offset="1" style="stop-color:#000000"/>
	</linearGradient>
	<path class="st12" d="M-222.9-320.5c-7.1,14.5-105.5,144-49.4,265.3c14.2,30.7,51.9,67.9,79.2,68.5c14.6,0.4,29.1-11.1,26.5-18.5
		c-2.2-6.3-16.1-6.5-25.4,3c-8.7,8.9-9,24.9-8,30.5c8.1,44.9,57.3,90.7,70.3,99.9c49.7,35.2,105.5,43.5,144.5,40.5
		C185.7,155.1,262.5-50.3,320-46.9c53.6,3.2,83,151.4,30.7,243.4c-24.6,43.2-69.5,79.5-101.6,100.6c-9.1,6-26.2,17.9-35.1,34.4
		c-5.2,9.7-7.6,17.8-9.5,22.8"/>
	<linearGradient id="SVGID_12_" gradientUnits="userSpaceOnUse" x1="-280.856" y1="15.9019" x2="379.9891" y2="15.9019">
		<stop  offset="0" style="stop-color:#020202"/>
		<stop  offset="1" style="stop-color:#000000"/>
	</linearGradient>
	<path class="st13" d="M-208.5-320.9c-7,13.5-109.6,139.8-56.8,263.5c12.9,30.2,47.8,66.2,73.5,68.9c13.7,1.4,27.3-7.9,25.5-13.6
		c-1.5-4.8-13.5-4-21.5,5.4c-7.4,8.7-7.2,23.8-6,29.4c9.4,42.5,55.6,86.1,69.3,95.7c48,33.8,101.6,42.3,139.5,39.1
		C179.8,153.7,249.3-51.7,310.3-49.8c57.5,1.8,96.6,153.3,45.4,245.9c-24.1,43.4-70.6,79.9-104.1,101.8
		c-9.5,6.2-26.1,17.6-35.1,33.1c-5.4,9.2-8.2,16.8-10.5,21.7"/>
	<linearGradient id="SVGID_13_" gradientUnits="userSpaceOnUse" x1="-271.8253" y1="14.8647" x2="381.938" y2="14.8647">
		<stop  offset="0" style="stop-color:#020202"/>
		<stop  offset="1" style="stop-color:#000000"/>
	</linearGradient>
	<path class="st14" d="M-194.1-321.3c-6.8,12.5-113.6,135.4-64.2,261.7c11.6,29.7,43.8,64.6,67.7,69.3c12.8,2.5,25.6-4.7,24.5-8.7
		c-0.8-3.3-10.8-1.6-17.5,7.9c-6.1,8.6-5.5,22.7-4,28.4c10.5,40.1,53.8,81.4,68.2,91.5c46.3,32.4,97.7,41,134.6,37.7
		c158.7-14.2,220.9-217,285.4-219.1c61.4-2.1,110.2,155.3,60,248.4c-23.6,43.6-71.7,80.3-106.6,102.9c-9.8,6.4-25.9,17.4-35.2,31.8
		c-5.6,8.7-8.9,15.9-11.6,20.6"/>
	<linearGradient id="SVGID_14_" gradientUnits="userSpaceOnUse" x1="-262.9123" y1="13.8261" x2="384.3685" y2="13.8261">
		<stop  offset="0" style="stop-color:#020202"/>
		<stop  offset="1" style="stop-color:#000000"/>
	</linearGradient>
	<path class="st15" d="M-179.7-321.8c-6.7,11.5-117.5,131.1-71.7,259.9c10.4,29.2,39.7,62.9,61.9,69.7c11.9,3.6,23.8-1.5,23.6-3.7
		c-0.2-1.8-8.1,0.9-13.5,10.3c-4.8,8.3-3.7,21.5-1.9,27.4c11.6,37.7,52,76.8,67.1,87.3c44.5,31,93.7,39.8,129.6,36.4
		C168,150.9,222.9-52.1,291-55.5c65.2-3.3,123.8,157.3,74.6,250.9c-23,43.8-72.8,80.8-109.1,104.1c-10.2,6.5-25.8,17.1-35.2,30.5
		c-5.8,8.2-9.6,15-12.6,19.4"/>
	<linearGradient id="SVGID_15_" gradientUnits="userSpaceOnUse" x1="-254.1144" y1="12.7855" x2="387.2021" y2="12.7855">
		<stop  offset="0" style="stop-color:#020202"/>
		<stop  offset="1" style="stop-color:#000000"/>
	</linearGradient>
	<path class="st16" d="M-165.3-322.2c-6.6,10.6-121.2,126.6-79.1,258.1c9.2,28.7,35.6,61.2,56.2,70c10.9,4.7,22.1,1.7,22.6,1.2
		c0.6-0.2-5.5,3.3-9.6,12.8c-3.5,8.1-2,20.4,0.1,26.4c12.5,35.4,50.3,72.2,66,83.1c42.8,29.6,89.8,38.5,124.7,35
		C162.1,149.5,209.6-55.9,281.3-58.4c69.1-2.4,137.3,159.3,89.3,253.4C348.1,239,296.7,276.2,259,300.2
		c-10.5,6.7-25.6,16.9-35.3,29.2c-6.1,7.8-10.3,14-13.7,18.3"/>
	<linearGradient id="SVGID_16_" gradientUnits="userSpaceOnUse" x1="-245.4324" y1="11.7427" x2="390.3386" y2="11.7427">
		<stop  offset="0" style="stop-color:#020202"/>
		<stop  offset="1" style="stop-color:#000000"/>
	</linearGradient>
	<path class="st17" d="M-150.8-322.7c-6.5,9.6-124.7,122.2-86.5,256.3c8,28.1,31.6,59.6,50.4,70.4c10,5.8,20.4,4.9,21.7,6.1
		c1.3,1.2-2.9,5.7-5.6,15.2c-2.2,7.8-0.3,19.3,2.2,25.3c13.4,33.2,48.5,67.6,65,78.9c41,28.2,85.9,37.3,119.7,33.6
		C156.2,148.1,196.4-57.3,271.6-61.3c73-3.8,150.9,161.3,103.9,255.9c-22,44.3-75,81.6-114.1,106.4c-10.8,6.9-25.5,16.6-35.3,27.9
		c-6.3,7.3-10.9,13.1-14.7,17.2"/>
	<linearGradient id="SVGID_17_" gradientUnits="userSpaceOnUse" x1="-236.8709" y1="10.6974" x2="393.7312" y2="10.6974">
		<stop  offset="0" style="stop-color:#020202"/>
		<stop  offset="1" style="stop-color:#000000"/>
	</linearGradient>
	<path class="st18" d="M-136.4-323.1c-6.4,8.6-128.1,117.7-93.9,254.5c6.9,27.6,27.5,57.9,44.6,70.8c9.1,6.9,18.6,8.1,20.7,11
		c2,2.8-0.4,8-1.6,17.7c-1,7.6,1.4,18.2,4.2,24.3c14.1,31,46.7,63,63.9,74.7c39.3,26.8,81.9,36,114.8,32.3
		C150.3,146.7,183.2-58.8,262-64.1c76.8-5.3,164.5,163.2,118.6,258.4c-21.5,44.5-76.1,82-116.6,107.5c-11.2,7.1-25.4,16.3-35.4,26.6
		c-6.5,6.8-11.6,12.2-15.8,16"/>
	<linearGradient id="SVGID_18_" gradientUnits="userSpaceOnUse" x1="-228.4395" y1="9.6494" x2="397.3345" y2="9.6494">
		<stop  offset="0" style="stop-color:#020202"/>
		<stop  offset="1" style="stop-color:#000000"/>
	</linearGradient>
	<path class="st19" d="M-122-323.5c-6.2,7.7-131.2,113.2-101.4,252.8c5.8,27.1,23.5,56.2,38.9,71.2c8.2,7.9,16.9,11.3,19.8,15.9
		c2.7,4.3,2.1,10.4,2.3,20.1c0.2,7.3,3.1,17.1,6.2,23.3c14.9,29,45,58.4,62.8,70.5c37.5,25.5,78,34.8,109.8,30.9
		C144.4,145.4,169.9-60.2,252.3-67c80.7-6.7,178,165.2,133.2,260.9c-21,44.7-77.2,82.4-119.1,108.7c-11.5,7.2-25.3,16-35.4,25.3
		c-6.8,6.3-12.3,11.3-16.8,14.9"/>
	<linearGradient id="SVGID_19_" gradientUnits="userSpaceOnUse" x1="-220.1527" y1="8.5987" x2="401.1128" y2="8.5987">
		<stop  offset="0" style="stop-color:#020202"/>
		<stop  offset="1" style="stop-color:#000000"/>
	</linearGradient>
	<path class="st20" d="M-107.6-324c-6.1,6.7-134,108.7-108.8,251c4.7,26.6,19.4,54.5,33.1,71.5c7.3,9,15.1,14.5,18.8,20.8
		c3.4,5.8,4.5,12.8,6.3,22.6c1.3,7.1,4.7,16,8.3,22.3c15.6,27,43.2,53.8,61.7,66.3C-52.4,154.6-14.1,164,16.7,160
		c121.9-16,140-221.6,225.9-229.9C327.1-78,434.2,97.3,390.5,193.5c-20.5,44.9-78.4,82.8-121.6,109.8c-11.9,7.4-25.2,15.7-35.4,24
		c-7.1,5.8-12.9,10.3-17.9,13.8"/>
	<linearGradient id="SVGID_20_" gradientUnits="userSpaceOnUse" x1="-212.0318" y1="7.5452" x2="405.0375" y2="7.5452">
		<stop  offset="0" style="stop-color:#020202"/>
		<stop  offset="1" style="stop-color:#000000"/>
	</linearGradient>
	<path class="st21" d="M-93.1-324.4c-6,5.7-136.6,104.3-116.2,249.2c3.7,26.1,15.4,52.9,27.3,71.9c6.4,10.1,13.4,17.7,17.8,25.7
		c4.1,7.4,6.9,15.3,10.2,25c2.4,6.9,6.3,15,10.3,21.2c16.3,25.1,41.4,49.2,60.7,62.1c34,22.8,70.1,32.4,99.9,28.2
		c115.8-16,126.5-222,216-231.7c88.3-9.6,205.2,169.2,162.5,265.8c-20,45.1-79.5,83.3-124.1,111c-12.2,7.6-25.1,15.4-35.5,22.7
		c-7.3,5.2-13.6,9.4-18.9,12.7"/>
	<linearGradient id="SVGID_21_" gradientUnits="userSpaceOnUse" x1="-204.1053" y1="6.4891" x2="409.0849" y2="6.4891">
		<stop  offset="0" style="stop-color:#020202"/>
		<stop  offset="1" style="stop-color:#000000"/>
	</linearGradient>
	<path class="st22" d="M-78.7-324.9c-5.9,4.7-139,99.9-123.7,247.4c2.7,25.6,11.3,51.2,21.6,72.3c5.4,11.2,11.6,20.9,16.9,30.6
		c4.8,8.9,9.2,17.8,14.2,27.5c3.5,6.7,7.8,14,12.4,20.2c17,23.4,39.6,44.7,59.6,57.9c32.2,21.4,66.2,31.1,95,26.8
		C126.8,141.5,130.1-64.7,223.3-75.6c92.1-11.2,218.8,171.2,177.1,268.3c-19.4,45.4-80.6,83.7-126.6,112.1
		c-12.6,7.8-25.1,15-35.5,21.5c-7.6,4.7-14.3,8.5-20,11.5"/>
	<linearGradient id="SVGID_22_" gradientUnits="userSpaceOnUse" x1="-196.4098" y1="5.4307" x2="413.2392" y2="5.4307">
		<stop  offset="0" style="stop-color:#020202"/>
		<stop  offset="1" style="stop-color:#000000"/>
	</linearGradient>
	<path class="st23" d="M-64.3-325.3c-5.8,3.8-141.1,95.6-131.1,245.6C-186.4,54.2-66,170.2,17.4,156.8
		C120.9,140.1,116.9-66,213.6-78.5C309.6-91,446,94.6,405.4,192.3c-18.9,45.6-81.7,84.1-129.1,113.3c-22.5,13.9-42.3,23.9-56.6,30.6
		"/>
</g>
<g>
	<linearGradient id="SVGID_23_" gradientUnits="userSpaceOnUse" x1="-379.5059" y1="37.0945" x2="430.6393" y2="37.0945">
		<stop  offset="0" style="stop-color:#020202"/>
		<stop  offset="1" style="stop-color:#000000"/>
	</linearGradient>
	<path class="st24" d="M-355.9-306.4c-8.3,24.2-60,182.4,24.9,283.2c28.8,34.2,92.5,84.4,136.9,64.8C-170.2,31-147.5-1.6-158-26
		c-9.3-21.5-42.4-32-65-21.5c-21.7,10-27.5,36.2-28.4,40.7c-14.7,67.3,74.8,137.1,81.1,141.9c66.2,50.5,144.8,56.2,194,54.1
		C255.9,179.4,406.3-29.2,428-8.5c22.5,21.6-135.4,264.7-192.2,307.6c-5.6,4.3-28.4,20.2-34.7,47.4c-3.3,14.4-0.9,27,1,34.1"/>
	<linearGradient id="SVGID_24_" gradientUnits="userSpaceOnUse" x1="-368.4594" y1="36.0321" x2="422.4106" y2="36.0321">
		<stop  offset="0" style="stop-color:#020202"/>
		<stop  offset="1" style="stop-color:#000000"/>
	</linearGradient>
	<path class="st25" d="M-341.4-306.8c-8.1,23.2-64.7,179,17.5,281.4c27.3,34,88.4,82.8,131.1,65.2c22.9-9.5,44.8-40,35.1-62.7
		c-8.6-20-39.8-29.4-61.1-19.1c-20.4,9.9-25.6,35.1-26.4,39.7c-11.6,65.4,73,132.4,80,137.7c64.7,48.8,140.9,54.9,189,52.8
		C250,178,392.7-30,418.3-11.4c18.9,13.7-39.1,133.6-101,221c-29.2,41.2-59.4,75.8-79.1,90.3c-6,4.4-28.2,20-34.7,46.1
		c-3.5,13.9-1.5,26.1,0,33"/>
	<linearGradient id="SVGID_25_" gradientUnits="userSpaceOnUse" x1="-357.6679" y1="34.9684" x2="414.7902" y2="34.9684">
		<stop  offset="0" style="stop-color:#020202"/>
		<stop  offset="1" style="stop-color:#000000"/>
	</linearGradient>
	<path class="st26" d="M-327-307.3c-8,22.2-69.3,175.4,10.1,279.6c25.7,33.8,84.4,81.1,125.3,65.5c22-8.4,43-36.8,34.1-57.7
		c-7.9-18.5-37.2-26.8-57.1-16.6c-19.2,9.8-23.7,34-24.4,38.6c-8.6,63.4,71.3,127.8,78.9,133.5C-96.9,182.7-23,189.3,24,187
		C244.1,176.6,379.3-30.9,408.6-14.2c22.6,12.8-25.5,135.5-86.4,223.5c-28.7,41.4-60.6,76.2-81.6,91.4c-6.3,4.6-27.9,19.8-34.8,44.8
		c-3.7,13.4-2.2,25.2-1.1,31.9"/>
	<linearGradient id="SVGID_26_" gradientUnits="userSpaceOnUse" x1="-347.1169" y1="33.9036" x2="407.926" y2="33.9036">
		<stop  offset="0" style="stop-color:#020202"/>
		<stop  offset="1" style="stop-color:#000000"/>
	</linearGradient>
	<path class="st27" d="M-312.6-307.7c-7.9,21.3-74,171.8,2.6,277.8c24.2,33.5,80.3,79.4,119.6,65.9c21.1-7.3,41.3-33.6,33.2-52.8
		c-7.2-17-34.6-24.3-53.1-14.2c-17.9,9.7-21.9,32.9-22.3,37.6c-5.9,61.3,69.5,123.1,77.9,129.3c61.5,45.5,133.1,52.4,179.1,50
		C238.2,175.1,366-31.9,399-17.1c26.4,11.8-12,137.5-71.8,226c-28.2,41.7-61.7,76.6-84.1,92.6c-6.7,4.8-27.7,19.5-34.8,43.5
		c-3.8,12.9-2.9,24.2-2.1,30.7"/>
	<linearGradient id="SVGID_27_" gradientUnits="userSpaceOnUse" x1="-336.791" y1="32.8375" x2="401.9754" y2="32.8375">
		<stop  offset="0" style="stop-color:#020202"/>
		<stop  offset="1" style="stop-color:#000000"/>
	</linearGradient>
	<path class="st28" d="M-298.2-308.2c-7.8,20.3-78.7,168-4.8,276c22.7,33.2,76.3,77.8,113.8,66.3C-169,28-149.6,3.8-157-13.8
		c-6.5-15.4-31.9-21.7-49.2-11.7c-16.6,9.6-20,31.8-20.3,36.6c-3.3,59.1,67.8,118.5,76.8,125.1c59.9,44,129.1,51.2,174.2,48.7
		C232.3,173.7,352.8-32.9,389.3-20c30.2,10.7,1.6,139.5-57.1,228.5c-27.7,41.9-62.8,77-86.6,93.7c-7,5-27.5,19.3-34.9,42.2
		c-4,12.5-3.6,23.3-3.2,29.6"/>
	<linearGradient id="SVGID_28_" gradientUnits="userSpaceOnUse" x1="-326.6748" y1="31.77" x2="397.0892" y2="31.77">
		<stop  offset="0" style="stop-color:#020202"/>
		<stop  offset="1" style="stop-color:#000000"/>
	</linearGradient>
	<path class="st29" d="M-283.8-308.6c-7.7,19.3-83.3,164.2-12.2,274.2c21.2,32.8,72.2,76.1,108.1,66.7c19.2-5.1,37.8-27.1,31.2-43
		c-5.7-13.9-29.3-19.2-45.2-9.3c-15.3,9.5-18.2,30.7-18.2,35.6c-0.9,56.9,66,113.9,75.7,120.9c58.2,42.5,125.2,49.9,169.2,47.3
		C226.4,172.3,339.6-34.1,379.6-22.9c34.1,9.6,15.2,141.5-42.5,231c-27.1,42.1-63.9,77.4-89.1,94.9c-7.4,5.1-27.2,19-34.9,40.9
		c-4.2,12-4.2,22.4-4.2,28.5"/>
	<linearGradient id="SVGID_29_" gradientUnits="userSpaceOnUse" x1="-316.7528" y1="30.7335" x2="393.3805" y2="30.7335">
		<stop  offset="0" style="stop-color:#020202"/>
		<stop  offset="1" style="stop-color:#000000"/>
	</linearGradient>
	<path class="st30" d="M-269.3-309c-7.5,18.3-87.8,160.4-19.7,272.4c19.7,32.5,68.1,74.5,102.3,67c18.3-4,36.1-23.9,30.3-38.1
		c-5-12.4-26.7-16.6-41.3-6.8C-211.6-5.1-214,15-213.9,20c1.2,54.5,64.3,109.2,74.6,116.7c56.6,41,121.3,48.7,164.3,45.9
		c195.5-11.7,301.4-218,344.9-208.4c38,8.4,28.7,143.5-27.8,233.4c-26.6,42.3-65,77.8-91.6,96c-7.7,5.3-27,18.8-34.9,39.6
		c-4.4,11.5-4.9,21.5-5.3,27.3"/>
	<linearGradient id="SVGID_30_" gradientUnits="userSpaceOnUse" x1="-307.01" y1="29.6976" x2="390.8897" y2="29.6976">
		<stop  offset="0" style="stop-color:#020202"/>
		<stop  offset="1" style="stop-color:#000000"/>
	</linearGradient>
	<path class="st31" d="M-254.9-309.5c-7.4,17.4-92.4,156.4-27.1,270.6c18.3,32.1,64.1,72.8,96.5,67.4c17.4-2.9,34.3-20.7,29.3-33.2
		c-4.3-10.9-24.1-14.1-37.3-4.4c-12.7,9.3-14.5,28.4-14.2,33.5C-204.4,76.7-145,129.1-134,137c54.9,39.5,117.3,47.3,159.3,44.6
		c189.4-12.5,288-218.2,335-210.2c42,7.1,42.3,145.4-13.2,235.9C321,249.9,281,285.6,253,304.5c-8.1,5.5-26.8,18.6-35,38.3
		c-4.6,11.1-5.6,20.5-6.3,26.2"/>
	<linearGradient id="SVGID_31_" gradientUnits="userSpaceOnUse" x1="-297.4325" y1="28.6623" x2="389.5684" y2="28.6623">
		<stop  offset="0" style="stop-color:#020202"/>
		<stop  offset="1" style="stop-color:#000000"/>
	</linearGradient>
	<path class="st32" d="M-240.5-309.9c-7.3,16.4-96.8,152.3-34.5,268.9c16.9,31.6,60,71.1,90.8,67.8c16.5-1.9,32.6-17.5,28.4-28.3
		c-3.6-9.4-21.4-11.6-33.3-1.9c-11.4,9.2-12.6,27.2-12.1,32.5c5,49.7,60.8,99.9,72.5,108.3c53.2,38.1,113.4,46.1,154.4,43.2
		c183.2-12.9,274.6-218.4,325.1-212c45.9,5.8,55.9,147.4,1.4,238.4c-25.6,42.8-67.2,78.7-96.6,98.3c-8.4,5.7-26.6,18.3-35,37
		c-4.8,10.6-6.2,19.6-7.4,25.1"/>
	<linearGradient id="SVGID_32_" gradientUnits="userSpaceOnUse" x1="-288.0072" y1="27.627" x2="389.2963" y2="27.627">
		<stop  offset="0" style="stop-color:#020202"/>
		<stop  offset="1" style="stop-color:#000000"/>
	</linearGradient>
	<path class="st33" d="M-226.1-310.4c-7.2,15.4-101.2,148.2-41.9,267.1c15.5,31.2,56,69.5,85,68.2c15.6-0.8,30.8-14.3,27.4-23.4
		c-2.9-7.8-18.8-9-29.4,0.5c-10,9-10.8,26.1-10.1,31.5c6.6,47.3,59.1,95.3,71.4,104.1c51.5,36.6,109.5,44.8,149.4,41.8
		C202.9,166.2,286.9-39.3,340.9-34.4c49.8,4.5,69.5,149.4,16.1,240.9c-25.1,43-68.3,79.1-99.1,99.5c-8.8,5.8-26.4,18.1-35.1,35.7
		c-5,10.1-6.9,18.7-8.4,24"/>
	<linearGradient id="SVGID_33_" gradientUnits="userSpaceOnUse" x1="-278.7225" y1="26.5915" x2="389.918" y2="26.5915">
		<stop  offset="0" style="stop-color:#020202"/>
		<stop  offset="1" style="stop-color:#000000"/>
	</linearGradient>
	<path class="st34" d="M-211.7-310.8c-7.1,14.5-105.5,144-49.4,265.3c14.2,30.7,51.9,67.9,79.2,68.5c14.6,0.4,29.1-11.1,26.5-18.5
		c-2.2-6.3-16.1-6.5-25.4,3c-8.7,8.9-9,24.9-8,30.5c8.1,44.9,57.3,90.7,70.3,99.9c49.7,35.2,105.5,43.5,144.5,40.5
		C197,164.8,273.8-40.6,331.3-37.2c53.6,3.2,83,151.4,30.7,243.4c-24.6,43.2-69.5,79.5-101.6,100.6c-9.1,6-26.2,17.9-35.1,34.4
		c-5.2,9.7-7.6,17.8-9.5,22.8"/>
	<linearGradient id="SVGID_34_" gradientUnits="userSpaceOnUse" x1="-269.5688" y1="25.5554" x2="391.2764" y2="25.5554">
		<stop  offset="0" style="stop-color:#020202"/>
		<stop  offset="1" style="stop-color:#000000"/>
	</linearGradient>
	<path class="st35" d="M-197.2-311.2c-7,13.5-109.6,139.8-56.8,263.5c12.9,30.2,47.8,66.2,73.5,68.9c13.7,1.4,27.3-7.9,25.5-13.6
		c-1.5-4.8-13.5-4-21.5,5.4c-7.4,8.7-7.2,23.8-6,29.4c9.4,42.5,55.6,86.1,69.3,95.7c48,33.8,101.6,42.3,139.5,39.1
		C191.1,163.3,260.6-42,321.6-40.1c57.5,1.8,96.6,153.3,45.4,245.9c-24.1,43.4-70.6,79.9-104.1,101.8c-9.5,6.2-26.1,17.6-35.1,33.1
		c-5.4,9.2-8.2,16.8-10.5,21.7"/>
	<linearGradient id="SVGID_35_" gradientUnits="userSpaceOnUse" x1="-260.5381" y1="24.5182" x2="393.2253" y2="24.5182">
		<stop  offset="0" style="stop-color:#020202"/>
		<stop  offset="1" style="stop-color:#000000"/>
	</linearGradient>
	<path class="st36" d="M-182.8-311.7C-189.6-299.2-296.4-176.2-247-50c11.6,29.7,43.8,64.6,67.7,69.3c12.8,2.5,25.6-4.7,24.5-8.7
		c-0.8-3.3-10.8-1.6-17.5,7.9c-6.1,8.6-5.5,22.7-4,28.4c10.5,40.1,53.8,81.4,68.2,91.5c46.3,32.4,97.7,41,134.6,37.7
		C185.2,161.9,247.4-40.8,311.9-43c61.4-2.1,110.2,155.3,60,248.4c-23.6,43.6-71.7,80.3-106.6,102.9c-9.8,6.4-25.9,17.4-35.2,31.8
		c-5.6,8.7-8.9,15.9-11.6,20.6"/>
	<linearGradient id="SVGID_36_" gradientUnits="userSpaceOnUse" x1="-251.625" y1="23.4796" x2="395.6557" y2="23.4796">
		<stop  offset="0" style="stop-color:#020202"/>
		<stop  offset="1" style="stop-color:#000000"/>
	</linearGradient>
	<path class="st37" d="M-168.4-312.1c-6.7,11.5-117.5,131.1-71.7,259.9c10.4,29.2,39.7,62.9,61.9,69.7c11.9,3.6,23.8-1.5,23.6-3.7
		c-0.2-1.8-8.1,0.9-13.5,10.3c-4.8,8.3-3.7,21.5-1.9,27.4c11.6,37.7,52,76.8,67.1,87.3c44.5,31,93.7,39.8,129.6,36.4
		C179.3,160.5,234.2-42.5,302.3-45.9C367.5-49.1,426,111.4,376.9,205c-23,43.8-72.8,80.8-109.1,104.1c-10.2,6.5-25.8,17.1-35.2,30.5
		c-5.8,8.2-9.6,15-12.6,19.4"/>
	<linearGradient id="SVGID_37_" gradientUnits="userSpaceOnUse" x1="-242.8271" y1="22.439" x2="398.4894" y2="22.439">
		<stop  offset="0" style="stop-color:#020202"/>
		<stop  offset="1" style="stop-color:#000000"/>
	</linearGradient>
	<path class="st38" d="M-154-312.6C-160.6-302-275.2-185.9-233-54.4c9.2,28.7,35.6,61.2,56.2,70c10.9,4.7,22.1,1.7,22.6,1.2
		c0.6-0.2-5.5,3.3-9.6,12.8c-3.5,8.1-2,20.4,0.1,26.4c12.5,35.4,50.3,72.2,66,83.1c42.8,29.6,89.8,38.5,124.7,35
		C173.4,159.1,220.9-46.2,292.6-48.7c69.1-2.4,137.3,159.3,89.3,253.4c-22.5,44.1-73.9,81.2-111.6,105.2
		c-10.5,6.7-25.6,16.9-35.3,29.2c-6.1,7.8-10.3,14-13.7,18.3"/>
	<linearGradient id="SVGID_38_" gradientUnits="userSpaceOnUse" x1="-234.1451" y1="21.3962" x2="401.6259" y2="21.3962">
		<stop  offset="0" style="stop-color:#020202"/>
		<stop  offset="1" style="stop-color:#000000"/>
	</linearGradient>
	<path class="st39" d="M-139.5-313c-6.5,9.6-124.7,122.2-86.5,256.3c8,28.1,31.6,59.6,50.4,70.4c10,5.8,20.4,4.9,21.7,6.1
		c1.3,1.2-2.9,5.7-5.6,15.2c-2.2,7.8-0.3,19.3,2.2,25.3c13.4,33.2,48.5,67.6,65,78.9c41,28.2,85.9,37.3,119.7,33.6
		C167.5,157.7,207.7-47.7,282.9-51.6c73-3.8,150.9,161.3,103.9,255.9c-22,44.3-75,81.6-114.1,106.4c-10.8,6.9-25.5,16.6-35.3,27.9
		c-6.3,7.3-10.9,13.1-14.7,17.2"/>
	<linearGradient id="SVGID_39_" gradientUnits="userSpaceOnUse" x1="-225.5837" y1="20.3509" x2="405.0184" y2="20.3509">
		<stop  offset="0" style="stop-color:#020202"/>
		<stop  offset="1" style="stop-color:#000000"/>
	</linearGradient>
	<path class="st40" d="M-125.1-313.4c-6.4,8.6-128.1,117.7-93.9,254.5c6.9,27.6,27.5,57.9,44.6,70.8c9.1,6.9,18.6,8.1,20.7,11
		c2,2.8-0.4,8-1.6,17.7c-1,7.6,1.4,18.2,4.2,24.3c14.1,31,46.7,63,63.9,74.7c39.3,26.8,81.9,36,114.8,32.3
		c134.1-15.5,167-220.9,245.8-226.3c76.8-5.3,164.5,163.2,118.6,258.4c-21.5,44.5-76.1,82-116.6,107.5
		c-11.2,7.1-25.4,16.3-35.4,26.6c-6.5,6.8-11.6,12.2-15.8,16"/>
	<linearGradient id="SVGID_40_" gradientUnits="userSpaceOnUse" x1="-217.1522" y1="19.3029" x2="408.6218" y2="19.3029">
		<stop  offset="0" style="stop-color:#020202"/>
		<stop  offset="1" style="stop-color:#000000"/>
	</linearGradient>
	<path class="st41" d="M-110.7-313.9c-6.2,7.7-131.2,113.2-101.4,252.8c5.8,27.1,23.5,56.2,38.9,71.2c8.2,7.9,16.9,11.3,19.8,15.9
		c2.7,4.3,2.1,10.4,2.3,20.1c0.2,7.3,3.1,17.1,6.2,23.3c14.9,29,45,58.4,62.8,70.5c37.5,25.5,78,34.8,109.8,30.9
		C155.7,155,181.2-50.5,263.6-57.4c80.7-6.7,178,165.2,133.2,260.9c-21,44.7-77.2,82.4-119.1,108.7c-11.5,7.2-25.3,16-35.4,25.3
		c-6.8,6.3-12.3,11.3-16.8,14.9"/>
	<linearGradient id="SVGID_41_" gradientUnits="userSpaceOnUse" x1="-208.8654" y1="18.2522" x2="412.4001" y2="18.2522">
		<stop  offset="0" style="stop-color:#020202"/>
		<stop  offset="1" style="stop-color:#000000"/>
	</linearGradient>
	<path class="st42" d="M-96.3-314.3c-6.1,6.7-134,108.7-108.8,251c4.7,26.6,19.4,54.5,33.1,71.5c7.3,9,15.1,14.5,18.8,20.8
		c3.4,5.8,4.5,12.8,6.3,22.6c1.3,7.1,4.7,16,8.3,22.3c15.6,27,43.2,53.8,61.7,66.3c35.8,24.1,74.1,33.6,104.9,29.5
		c121.9-16,140-221.6,225.9-229.9c84.5-8.1,191.6,167.2,147.8,263.3C381.3,248,323.4,286,280.2,312.9c-11.9,7.4-25.2,15.7-35.4,24
		c-7.1,5.8-12.9,10.3-17.9,13.8"/>
	<linearGradient id="SVGID_42_" gradientUnits="userSpaceOnUse" x1="-200.7445" y1="17.1987" x2="416.3248" y2="17.1987">
		<stop  offset="0" style="stop-color:#020202"/>
		<stop  offset="1" style="stop-color:#000000"/>
	</linearGradient>
	<path class="st43" d="M-81.9-314.8c-6,5.7-136.6,104.3-116.2,249.2c3.7,26.1,15.4,52.9,27.3,71.9c6.4,10.1,13.4,17.7,17.8,25.7
		c4.1,7.4,6.9,15.3,10.2,25c2.4,6.9,6.3,15,10.3,21.2c16.3,25.1,41.4,49.2,60.7,62.1c34,22.8,70.1,32.4,99.9,28.2
		c115.8-16,126.5-222,216-231.7c88.3-9.6,205.2,169.2,162.5,265.8c-20,45.1-79.5,83.3-124.1,111c-12.2,7.6-25.1,15.4-35.5,22.7
		c-7.3,5.2-13.6,9.4-18.9,12.7"/>
	<linearGradient id="SVGID_43_" gradientUnits="userSpaceOnUse" x1="-192.818" y1="16.1425" x2="420.3722" y2="16.1425">
		<stop  offset="0" style="stop-color:#020202"/>
		<stop  offset="1" style="stop-color:#000000"/>
	</linearGradient>
	<path class="st44" d="M-67.4-315.2c-5.9,4.7-139,99.9-123.7,247.4c2.7,25.6,11.3,51.2,21.6,72.3c5.4,11.2,11.6,20.9,16.9,30.6
		c4.8,8.9,9.2,17.8,14.2,27.5c3.5,6.7,7.8,14,12.4,20.2c17,23.4,39.6,44.7,59.6,57.9c32.2,21.4,66.2,31.1,95,26.8
		C138.1,151.2,141.4-55,234.6-66c92.1-11.2,218.8,171.2,177.1,268.3c-19.4,45.4-80.6,83.7-126.6,112.1c-12.6,7.8-25.1,15-35.5,21.5
		c-7.6,4.7-14.3,8.5-20,11.5"/>
	<linearGradient id="SVGID_44_" gradientUnits="userSpaceOnUse" x1="-185.1226" y1="15.0842" x2="424.5265" y2="15.0842">
		<stop  offset="0" style="stop-color:#020202"/>
		<stop  offset="1" style="stop-color:#000000"/>
	</linearGradient>
	<path class="st45" d="M-53-315.7c-5.8,3.8-141.1,95.6-131.1,245.6c8.9,133.9,129.4,249.9,212.8,236.5
		c103.5-16.7,99.4-222.7,196.2-235.3c96-12.4,232.3,173.1,191.8,270.8c-18.9,45.6-81.7,84.1-129.1,113.3
		c-22.5,13.9-42.3,23.9-56.6,30.6"/>
</g>
<text transform="matrix(1 0 0 1 19.2828 24.0831)" class="st46 st47 st48">j</text>
</svg>
