<?xml version="1.0" encoding="utf-8"?>
<!-- Generator: Adobe Illustrator 21.0.0, SVG Export Plug-In . SVG Version: 6.00 Build 0)  -->
<svg version="1.1" id="Isolationsmodus" xmlns="http://www.w3.org/2000/svg" xmlns:xlink="http://www.w3.org/1999/xlink" x="0px"
	 y="0px" viewBox="0 0 841.9 595.3" style="enable-background:new 0 0 841.9 595.3;" xml:space="preserve">
<style type="text/css">
	.st0{fill:none;stroke:#FFED00;stroke-width:0.9363;stroke-miterlimit:10;}
</style>
<g>
	<path class="st0" d="M110.5-4.9c-6.8,19.8-49.1,149.3,20.4,231.8c23.6,28,75.7,69.1,112,53c19.5-8.6,38.1-35.3,29.5-55.3
		c-7.6-17.6-34.7-26.2-53.2-17.6c-17.8,8.2-22.5,29.6-23.3,33.3c-12,55.1,61.2,112.2,66.4,116.1c54.2,41.3,118.5,46,158.7,44.3
		c190.2-8,313.3-178.7,331-161.8c18.4,17.6-110.8,216.6-157.3,251.8c-4.6,3.5-23.3,16.6-28.4,38.8c-2.7,11.8-0.7,22.1,0.8,27.9"/>
	<path class="st0" d="M122.3-5.3c-6.7,19-52.9,146.5,14.3,230.3c22.3,27.8,72.4,67.7,107.3,53.3c18.8-7.7,36.7-32.7,28.7-51.3
		c-7-16.4-32.5-24.1-50-15.6c-16.7,8.1-20.9,28.7-21.6,32.5c-9.5,53.5,59.8,108.4,65.5,112.7c52.9,39.9,115.3,45,154.7,43.2
		c185.1-8.3,301.9-178.5,322.9-163.2c15.4,11.2-32,109.3-82.7,180.9c-23.9,33.7-48.6,62-64.7,73.9c-4.9,3.6-23.1,16.4-28.4,37.7
		c-2.9,11.4-1.3,21.4,0,27"/>
	<path class="st0" d="M134.1-5.6c-6.6,18.2-56.7,143.6,8.2,228.8c21,27.6,69.1,66.4,102.6,53.6c18-6.8,35.2-30.1,27.9-47.3
		c-6.4-15.1-30.4-22-46.7-13.6c-15.7,8-19.4,27.8-19.9,31.6c-7.1,51.9,58.3,104.6,64.6,109.2c51.7,38.6,112.1,43.9,150.6,42.1
		c180.1-8.5,290.7-178.3,314.8-164.7c18.5,10.5-20.9,110.9-70.7,182.9c-23.5,33.9-49.6,62.3-66.8,74.8c-5.2,3.8-22.9,16.2-28.5,36.7
		c-3,11-1.8,20.6-0.9,26.1"/>
	<path class="st0" d="M145.9-6c-6.5,17.4-60.6,140.6,2.2,227.4c19.8,27.4,65.7,65,97.9,53.9c17.2-6,33.8-27.5,27.1-43.2
		c-5.9-13.9-28.3-19.9-43.5-11.6c-14.6,7.9-17.9,26.9-18.3,30.8c-4.8,50.2,56.9,100.8,63.7,105.8c50.4,37.3,108.9,42.9,146.6,40.9
		c175.1-8.8,279.7-178.2,306.6-166.2c21.6,9.7-9.8,112.5-58.7,184.9c-23.1,34.1-50.5,62.7-68.8,75.8c-5.5,3.9-22.7,16-28.5,35.6
		c-3.1,10.6-2.4,19.8-1.7,25.1"/>
	<path class="st0" d="M157.7-6.3c-6.4,16.6-64.4,137.5-3.9,225.9c18.6,27.1,62.4,63.7,93.1,54.3c16.5-5.1,32.4-24.8,26.4-39.2
		C268,222,247.1,216.8,233,225c-13.6,7.9-16.4,26-16.6,30c-2.7,48.4,55.5,97,62.8,102.4c49,36,105.7,41.9,142.5,39.8
		c170.1-9.1,268.7-178.2,298.5-167.6c24.8,8.8,1.3,114.2-46.7,187c-22.6,34.3-51.4,63-70.9,76.7c-5.8,4.1-22.5,15.8-28.5,34.5
		c-3.3,10.2-2.9,19.1-2.6,24.2"/>
	<path class="st0" d="M169.5-6.7c-6.3,15.8-68.2,134.4-10,224.4c17.4,26.9,59.1,62.3,88.4,54.6c15.7-4.2,30.9-22.2,25.6-35.2
		c-4.7-11.4-24-15.7-37-7.6c-12.5,7.8-14.9,25.1-14.9,29.1c-0.8,46.5,54.1,93.2,62,98.9c47.7,34.8,102.5,40.9,138.5,38.7
		c165.1-9.3,257.7-178.3,290.4-169.1c27.9,7.8,12.4,115.8-34.8,189c-22.2,34.5-52.3,63.4-72.9,77.6c-6,4.2-22.3,15.6-28.6,33.5
		c-3.4,9.8-3.4,18.3-3.4,23.3"/>
	<path class="st0" d="M181.3-7.1c-6.2,15-71.9,131.2-16.1,223c16.2,26.6,55.8,60.9,83.7,54.9c15-3.3,29.5-19.6,24.8-31.2
		c-4.1-10.1-21.8-13.6-33.8-5.6c-11.4,7.7-13.4,24.2-13.3,28.3c1,44.6,52.6,89.4,61.1,95.5c46.3,33.5,99.2,39.8,134.4,37.6
		c160-9.6,246.7-178.4,282.3-170.6c31.1,6.9,23.5,117.4-22.8,191.1c-21.8,34.6-53.2,63.7-74.9,78.6c-6.3,4.3-22.1,15.4-28.6,32.4
		c-3.6,9.4-4,17.6-4.3,22.4"/>
	<path class="st0" d="M193.1-7.4c-6.1,14.2-75.6,128-22.2,221.5c15,26.2,52.4,59.6,79,55.2c14.2-2.4,28.1-17,24-27.2
		c-3.6-8.9-19.7-11.5-30.5-3.6c-10.4,7.6-11.8,23.2-11.6,27.4c2.6,42.7,51.2,85.6,60.2,92.1c44.9,32.3,96,38.7,130.4,36.5
		c155-10.2,235.7-178.6,274.2-172c34.3,5.8,34.6,119-10.8,193.1c-21.4,34.8-54.1,64.1-77,79.5c-6.6,4.5-22,15.2-28.6,31.4
		c-3.7,9-4.5,16.8-5.2,21.4"/>
	<path class="st0" d="M204.9-7.8c-6,13.4-79.2,124.7-28.2,220c13.8,25.9,49.1,58.2,74.3,55.5c13.5-1.5,26.7-14.3,23.2-23.2
		c-3-7.7-17.5-9.5-27.3-1.6c-9.3,7.5-10.4,22.3-9.9,26.6c4.1,40.7,49.8,81.8,59.3,88.6c43.5,31.1,92.8,37.7,126.3,35.3
		c150-10.5,224.7-178.7,266.1-173.5c37.5,4.8,45.7,120.6,1.2,195.1c-21,35-55,64.4-79,80.5c-6.9,4.6-21.8,15-28.7,30.3
		c-3.9,8.7-5.1,16-6,20.5"/>
	<path class="st0" d="M216.7-8.1c-5.9,12.6-82.8,121.3-34.3,218.6c12.7,25.5,45.8,56.9,69.6,55.8c12.7-0.6,25.2-11.7,22.4-19.1
		c-2.4-6.4-15.4-7.4-24,0.4c-8.2,7.4-8.9,21.4-8.2,25.8c5.4,38.7,48.3,78,58.4,85.2c42.1,30,89.6,36.7,122.3,34.2
		c144.9-10.8,213.8-179,258-175c40.7,3.7,56.8,122.3,13.2,197.2c-20.5,35.2-55.9,64.7-81.1,81.4c-7.2,4.8-21.6,14.8-28.7,29.2
		c-4.1,8.3-5.6,15.3-6.9,19.6"/>
	<path class="st0" d="M228.5-8.5c-5.8,11.8-86.3,117.9-40.4,217.1c11.6,25.1,42.5,55.6,64.8,56.1c12,0.3,23.8-9.1,21.7-15.1
		c-1.8-5.2-13.2-5.3-20.8,2.4c-7.1,7.3-7.4,20.4-6.6,24.9c6.6,36.7,46.9,74.2,57.6,81.8c40.7,28.8,86.4,35.6,118.2,33.1
		c139.9-11.1,202.8-179.2,249.8-176.4c43.9,2.6,68,123.9,25.1,199.2c-20.1,35.3-56.8,65.1-83.1,82.3c-7.5,4.9-21.5,14.6-28.8,28.2
		c-4.2,7.9-6.2,14.5-7.7,18.7"/>
	<path class="st0" d="M240.3-8.9c-5.7,11-89.7,114.4-46.5,215.6c10.6,24.7,39.2,54.2,60.1,56.4c11.2,1.2,22.4-6.5,20.9-11.1
		c-1.3-3.9-11-3.3-17.6,4.4c-6.1,7.1-5.9,19.5-4.9,24.1c7.7,34.8,45.5,70.4,56.7,78.3c39.3,27.6,83.1,34.6,114.2,32
		C558.1,379.5,615,211.5,664.9,213c47.1,1.5,79.1,125.5,37.1,201.3c-19.7,35.5-57.8,65.4-85.2,83.3c-7.7,5.1-21.4,14.4-28.8,27.1
		c-4.4,7.5-6.7,13.8-8.6,17.7"/>
	<path class="st0" d="M252.1-9.2c-5.6,10.2-93,110.8-52.6,214.2c9.5,24.3,35.8,52.8,55.4,56.7c10.5,2.1,20.9-3.8,20.1-7.1
		c-0.7-2.7-8.8-1.3-14.3,6.4c-5,7-4.5,18.5-3.2,23.3c8.6,32.8,44,66.7,55.8,74.9c37.9,26.5,79.9,33.6,110.1,30.9
		C553.3,378.4,604.2,212.5,657,210.7c50.2-1.7,90.2,127.1,49.1,203.3c-19.3,35.7-58.7,65.8-87.2,84.2c-8,5.2-21.2,14.2-28.8,26.1
		c-4.6,7.1-7.3,13-9.5,16.8"/>
	<path class="st0" d="M263.9-9.6c-5.5,9.4-96.2,107.3-58.6,212.7c8.5,23.9,32.5,51.5,50.7,57c9.7,3,19.5-1.2,19.3-3.1
		c-0.1-1.4-6.7,0.7-11.1,8.4c-3.9,6.8-3,17.6-1.6,22.4c9.5,30.9,42.6,62.9,54.9,71.5c36.4,25.4,76.7,32.6,106.1,29.8
		c124.8-11.9,169.8-178,225.5-180.8c53.4-2.7,101.3,128.7,61.1,205.3c-18.9,35.9-59.6,66.1-89.3,85.2c-8.3,5.4-21.1,14-28.9,25
		c-4.8,6.7-7.8,12.2-10.3,15.9"/>
	<path class="st0" d="M275.7-9.9c-5.4,8.6-99.2,103.6-64.7,211.3c7.5,23.5,29.2,50.1,46,57.3c9,3.8,18.1,1.4,18.5,1
		c0.5-0.2-4.5,2.7-7.8,10.4c-2.8,6.6-1.6,16.7,0.1,21.6c10.2,29,41.1,59.1,54,68c35,24.2,73.5,31.5,102,28.6
		C543.6,376.1,582.5,208,641.2,206c56.6-2,112.4,130.4,73.1,207.4c-18.4,36.1-60.5,66.4-91.3,86.1c-8.6,5.5-21,13.8-28.9,23.9
		c-4.9,6.3-8.4,11.5-11.2,15"/>
	<path class="st0" d="M287.5-10.3c-5.3,7.9-102.1,100-70.8,209.8c6.6,23,25.9,48.8,41.2,57.6c8.2,4.7,16.7,4,17.7,5
		c1.1,1-2.4,4.6-4.6,12.4c-1.8,6.4-0.2,15.8,1.8,20.7c10.9,27.2,39.7,55.3,53.2,64.6c33.6,23.1,70.3,30.5,98,27.5
		C538.8,375,571.7,206.9,633.3,203.6c59.7-3.1,123.5,132,85.1,209.4c-18,36.2-61.4,66.8-93.4,87.1c-8.9,5.7-20.9,13.6-28.9,22.9
		c-5.1,5.9-8.9,10.7-12,14"/>
	<path class="st0" d="M299.3-10.7c-5.2,7.1-104.8,96.3-76.9,208.3c5.6,22.6,22.5,47.4,36.5,57.9c7.5,5.6,15.2,6.6,17,9
		c1.7,2.3-0.3,6.6-1.3,14.4c-0.8,6.2,1.1,14.9,3.4,19.9c11.6,25.4,38.3,51.6,52.3,61.2c32.1,22,67.1,29.5,93.9,26.4
		C534,373.8,560.9,205.7,625.4,201.3c62.9-4.3,134.6,133.6,97,211.4c-17.6,36.4-62.3,67.1-95.4,88c-9.2,5.8-20.8,13.4-29,21.8
		c-5.3,5.5-9.5,10-12.9,13.1"/>
	<path class="st0" d="M311.1-11c-5.1,6.3-107.4,92.7-83,206.9c4.7,22.2,19.2,46,31.8,58.2c6.7,6.5,13.8,9.3,16.2,13
		c2.2,3.5,1.7,8.5,1.9,16.5c0.1,6,2.5,14,5.1,19.1c12.2,23.7,36.8,47.8,51.4,57.7c30.7,20.8,63.8,28.5,89.9,25.3
		c104.8-12.9,125.6-181.1,193-186.7c66-5.5,145.7,135.2,109,213.5c-17.2,36.6-63.2,67.5-97.5,88.9c-9.5,5.9-20.7,13.1-29,20.8
		c-5.6,5.1-10,9.2-13.7,12.2"/>
	<path class="st0" d="M322.9-11.4c-5,5.5-109.7,89-89,205.4c3.9,21.7,15.9,44.6,27.1,58.6c6,7.4,12.4,11.9,15.4,17
		c2.8,4.8,3.7,10.5,5.1,18.5c1,5.8,3.8,13.1,6.8,18.2c12.7,22.1,35.3,44,50.5,54.3c29.3,19.7,60.6,27.5,85.8,24.2
		c99.7-13.1,114.5-181.4,184.9-188.1c69.2-6.6,156.8,136.8,121,215.5c-16.8,36.8-64.1,67.8-99.5,89.9c-9.7,6.1-20.7,12.9-29,19.7
		c-5.8,4.7-10.6,8.4-14.6,11.3"/>
	<path class="st0" d="M334.7-11.8c-4.9,4.7-111.8,85.4-95.1,203.9c3,21.3,12.6,43.3,22.4,58.9c5.2,8.3,10.9,14.5,14.6,21
		c3.4,6,5.6,12.5,8.4,20.5c1.9,5.6,5.1,12.3,8.4,17.4c13.3,20.6,33.9,40.3,49.7,50.9c27.8,18.6,57.4,26.5,81.8,23
		c94.7-13.1,103.5-181.7,176.8-189.6c72.3-7.8,167.9,138.5,133,217.6c-16.3,36.9-65,68.1-101.6,90.8c-10,6.2-20.6,12.6-29.1,18.6
		c-6,4.3-11.1,7.7-15.5,10.3"/>
	<path class="st0" d="M346.5-12.1c-4.8,3.9-113.8,81.8-101.2,202.5c2.2,20.9,9.3,41.9,17.7,59.2c4.5,9.1,9.5,17.1,13.8,25.1
		c3.9,7.3,7.6,14.6,11.6,22.5c2.8,5.5,6.4,11.5,10.1,16.6c13.9,19.1,32.4,36.6,48.8,47.4c26.4,17.5,54.2,25.5,77.7,21.9
		c89.7-13.4,92.4-182.1,168.7-191.1c75.4-9.1,179,140.1,145,219.6c-15.9,37.1-65.9,68.5-103.6,91.8c-10.3,6.4-20.5,12.3-29.1,17.6
		c-6.2,3.8-11.7,6.9-16.3,9.4"/>
	<path class="st0" d="M358.3-12.5c-4.7,3.1-115.5,78.2-107.3,201C258.4,298.1,357,393,425.2,382.1c84.7-13.6,81.4-182.3,160.6-192.5
		c78.6-10.2,190.1,141.7,156.9,221.6c-15.5,37.3-66.9,68.8-105.7,92.7c-18.4,11.3-34.6,19.5-46.3,25"/>
</g>
</svg>
